<mxfile host="Electron" agent="Mozilla/5.0 (Windows NT 10.0; Win64; x64) AppleWebKit/537.36 (KHTML, like Gecko) draw.io/24.7.17 Chrome/128.0.6613.36 Electron/32.0.1 Safari/537.36" version="24.7.17" pages="2">
  <diagram id="ttFBYVUVBB3Bwz4MxXwu" name="IT-landscape">
    <mxGraphModel dx="2367" dy="1450" grid="1" gridSize="10" guides="1" tooltips="1" connect="1" arrows="1" fold="1" page="1" pageScale="1" pageWidth="1169" pageHeight="827" math="0" shadow="0">
      <root>
        <mxCell id="0" />
        <mxCell id="1" parent="0" />
        <mxCell id="E8XrKNkD-SoETmU5wcEP-1" value="&lt;blockquote style=&quot;margin: 0 0 0 40px; border: none; padding: 0px;&quot;&gt;&lt;font style=&quot;font-size: 14px;&quot;&gt;&lt;b&gt;Система АБС&lt;/b&gt;&lt;/font&gt;&lt;/blockquote&gt;" style="html=1;fillColor=#dae8fc;strokeColor=#6c8ebf;shadow=0;fontSize=12;align=left;fontStyle=0;whiteSpace=wrap;rounded=1;container=0;verticalAlign=middle;fontFamily=Helvetica;strokeWidth=3;arcSize=2;" parent="1" vertex="1">
          <mxGeometry x="194" y="171.74" width="920" height="615.26" as="geometry" />
        </mxCell>
        <mxCell id="E8XrKNkD-SoETmU5wcEP-2" value="&lt;font color=&quot;#000000&quot; style=&quot;font-size: 14px;&quot;&gt;&lt;b&gt;Сайт&lt;/b&gt;&lt;/font&gt;" style="html=1;fillColor=#60a917;strokeColor=#2D7600;shadow=0;fontSize=12;align=center;fontStyle=0;whiteSpace=wrap;rounded=1;container=0;verticalAlign=middle;fontFamily=Helvetica;strokeWidth=3;glass=0;dashed=1;sketch=1;jiggle=2;curveFitting=1;fontColor=#ffffff;" parent="1" vertex="1">
          <mxGeometry x="503.18" y="405.46" width="147.83" height="64.54" as="geometry" />
        </mxCell>
        <mxCell id="E8XrKNkD-SoETmU5wcEP-3" value="&lt;font style=&quot;font-size: 14px;&quot;&gt;&lt;b&gt;Система кол-центра&lt;/b&gt;&lt;/font&gt;" style="html=1;fillColor=#dae8fc;strokeColor=#6c8ebf;shadow=0;fontSize=12;align=center;fontStyle=0;whiteSpace=wrap;rounded=1;container=0;verticalAlign=middle;fontFamily=Helvetica;strokeWidth=3;arcSize=11;" parent="1" vertex="1">
          <mxGeometry x="358.84" y="794" width="255.16" height="147.83" as="geometry" />
        </mxCell>
        <mxCell id="E8XrKNkD-SoETmU5wcEP-13" value="Продажа в сети отделений" style="html=1;fillColor=#4D4D4D;strokeColor=none;shadow=0;fontSize=14;fontColor=#FFFFFF;align=center;fontStyle=1;whiteSpace=wrap;rounded=0;container=0;" parent="1" vertex="1">
          <mxGeometry x="192.73913043478262" y="120" width="147.82608695652172" height="44.347826086956516" as="geometry" />
        </mxCell>
        <mxCell id="E8XrKNkD-SoETmU5wcEP-14" value="Продажи через кол-центр" style="html=1;fillColor=#4D4D4D;strokeColor=none;shadow=0;fontSize=14;fontColor=#FFFFFF;align=center;fontStyle=1;whiteSpace=wrap;rounded=0;container=0;" parent="1" vertex="1">
          <mxGeometry x="347.9565217391304" y="120" width="147.82608695652172" height="44.347826086956516" as="geometry" />
        </mxCell>
        <mxCell id="E8XrKNkD-SoETmU5wcEP-15" value="&lt;div&gt;&lt;span style=&quot;font-size: 12px;&quot;&gt;Обслуживание депозитных процессов&lt;/span&gt;&lt;/div&gt;" style="html=1;fillColor=#4D4D4D;strokeColor=none;shadow=0;fontSize=14;fontColor=#FFFFFF;align=center;fontStyle=1;whiteSpace=wrap;rounded=0;container=0;" parent="1" vertex="1">
          <mxGeometry x="503.17391304347825" y="120" width="147.82608695652172" height="44.347826086956516" as="geometry" />
        </mxCell>
        <mxCell id="E8XrKNkD-SoETmU5wcEP-17" value="" style="group" parent="1" vertex="1" connectable="0">
          <mxGeometry x="81" y="171.74" width="104.35" height="458.26" as="geometry" />
        </mxCell>
        <mxCell id="E8XrKNkD-SoETmU5wcEP-10" value="&lt;p style=&quot;line-height: 100%;&quot;&gt;&lt;font style=&quot;font-size: 12px;&quot; face=&quot;Verdana&quot;&gt;Управление обслуживанием в сети отделений&lt;/font&gt;&lt;/p&gt;" style="html=1;fillColor=#4D4D4D;strokeColor=none;shadow=0;fontSize=14;fontColor=#FFFFFF;align=center;fontStyle=1;whiteSpace=wrap;horizontal=0;rounded=0;container=0;" parent="E8XrKNkD-SoETmU5wcEP-17" vertex="1">
          <mxGeometry width="104.35000000000002" height="147.82580645161292" as="geometry" />
        </mxCell>
        <mxCell id="E8XrKNkD-SoETmU5wcEP-11" value="Управление обслуживанием депозитных продуктов" style="html=1;fillColor=#4D4D4D;strokeColor=none;shadow=0;fontSize=14;fontColor=#FFFFFF;align=center;fontStyle=1;whiteSpace=wrap;horizontal=0;rounded=0;container=0;" parent="E8XrKNkD-SoETmU5wcEP-17" vertex="1">
          <mxGeometry y="155.21709677419355" width="104.35000000000002" height="147.82580645161292" as="geometry" />
        </mxCell>
        <mxCell id="E8XrKNkD-SoETmU5wcEP-12" value="&lt;div&gt;Управление обслуживанием кредитных продуктов&lt;br&gt;&lt;/div&gt;" style="html=1;fillColor=#4D4D4D;strokeColor=none;shadow=0;fontSize=14;fontColor=#FFFFFF;align=center;fontStyle=1;whiteSpace=wrap;horizontal=0;rounded=0;container=0;" parent="E8XrKNkD-SoETmU5wcEP-17" vertex="1">
          <mxGeometry y="310.43419354838716" width="104.35000000000002" height="147.82580645161292" as="geometry" />
        </mxCell>
        <mxCell id="E8XrKNkD-SoETmU5wcEP-21" value="IT-отдел" style="html=1;fillColor=#4D4D4D;strokeColor=none;shadow=0;fontSize=14;fontColor=#FFFFFF;align=center;fontStyle=1;whiteSpace=wrap;horizontal=0;rounded=0;container=0;" parent="E8XrKNkD-SoETmU5wcEP-17" vertex="1">
          <mxGeometry y="466.2641935483872" width="104.35000000000002" height="147.82580645161292" as="geometry" />
        </mxCell>
        <mxCell id="E8XrKNkD-SoETmU5wcEP-22" value="Кол-центр" style="html=1;fillColor=#4D4D4D;strokeColor=none;shadow=0;fontSize=14;fontColor=#FFFFFF;align=center;fontStyle=1;whiteSpace=wrap;horizontal=0;rounded=0;container=0;" parent="1" vertex="1">
          <mxGeometry x="80" y="794.0041935483872" width="104.35000000000002" height="147.82580645161292" as="geometry" />
        </mxCell>
        <mxCell id="E8XrKNkD-SoETmU5wcEP-26" value="Команда цифровой трансформации розничного бизнеса" style="html=1;fillColor=#4D4D4D;strokeColor=none;shadow=0;fontSize=14;fontColor=#FFFFFF;align=center;fontStyle=1;whiteSpace=wrap;horizontal=0;rounded=0;container=0;" parent="1" vertex="1">
          <mxGeometry x="80" y="950.0041935483872" width="104.35000000000002" height="147.82580645161292" as="geometry" />
        </mxCell>
        <mxCell id="NMlwa3Uv1Yku8ot8RTsb-1" value="&lt;font style=&quot;font-size: 22px;&quot;&gt;Карта IT-ландшафта компании&lt;/font&gt;" style="rounded=0;whiteSpace=wrap;html=1;" parent="1" vertex="1">
          <mxGeometry x="80" y="10" width="340" height="80" as="geometry" />
        </mxCell>
        <mxCell id="NMlwa3Uv1Yku8ot8RTsb-2" value="&lt;font color=&quot;#000000&quot; style=&quot;font-size: 14px;&quot;&gt;&lt;b&gt;Интернет-банк&lt;/b&gt;&lt;/font&gt;" style="html=1;fillColor=#1ba1e2;strokeColor=#006EAF;shadow=0;fontSize=12;align=center;fontStyle=0;whiteSpace=wrap;rounded=1;container=0;verticalAlign=middle;fontFamily=Helvetica;strokeWidth=3;dashed=1;perimeterSpacing=0;sketch=1;curveFitting=1;jiggle=2;glass=0;fontColor=#ffffff;" parent="1" vertex="1">
          <mxGeometry x="503.17" y="320" width="147.83" height="70" as="geometry" />
        </mxCell>
        <mxCell id="NMlwa3Uv1Yku8ot8RTsb-5" value="Digital-оповещения клиентов" style="html=1;fillColor=#4D4D4D;strokeColor=none;shadow=0;fontSize=14;fontColor=#FFFFFF;align=center;fontStyle=1;whiteSpace=wrap;rounded=0;container=0;" parent="1" vertex="1">
          <mxGeometry x="658.0039130434783" y="120" width="147.82608695652172" height="44.347826086956516" as="geometry" />
        </mxCell>
        <mxCell id="NMlwa3Uv1Yku8ot8RTsb-12" value="&lt;span style=&quot;font-size: 12px;&quot;&gt;Обслуживание кредитных процессов&lt;/span&gt;" style="html=1;fillColor=#4D4D4D;strokeColor=none;shadow=0;fontSize=14;fontColor=#FFFFFF;align=center;fontStyle=1;whiteSpace=wrap;rounded=0;container=0;" parent="1" vertex="1">
          <mxGeometry x="814.0039130434783" y="120" width="147.82608695652172" height="44.347826086956516" as="geometry" />
        </mxCell>
        <mxCell id="NMlwa3Uv1Yku8ot8RTsb-19" value="Управление договорами" style="html=1;fillColor=#4D4D4D;strokeColor=none;shadow=0;fontSize=14;fontColor=#FFFFFF;align=center;fontStyle=1;whiteSpace=wrap;rounded=0;container=0;" parent="1" vertex="1">
          <mxGeometry x="969.0039130434784" y="120" width="147.82608695652172" height="44.347826086956516" as="geometry" />
        </mxCell>
        <mxCell id="NMlwa3Uv1Yku8ot8RTsb-23" value="&lt;font color=&quot;#000000&quot; style=&quot;font-size: 14px;&quot;&gt;&lt;b&gt;Интернет-банк&lt;/b&gt;&lt;/font&gt;" style="html=1;fillColor=#1ba1e2;strokeColor=#006EAF;shadow=0;fontSize=12;align=center;fontStyle=0;whiteSpace=wrap;rounded=1;container=0;verticalAlign=middle;fontFamily=Helvetica;strokeWidth=3;dashed=1;perimeterSpacing=0;fontColor=#ffffff;glass=0;sketch=1;curveFitting=1;jiggle=2;" parent="1" vertex="1">
          <mxGeometry x="202.13" y="639.17" width="901.87" height="140.83" as="geometry" />
        </mxCell>
      </root>
    </mxGraphModel>
  </diagram>
  <diagram name="integration" id="mNJCfC7LIg5P_xArbFlL">
    <mxGraphModel dx="1660" dy="840" grid="1" gridSize="10" guides="1" tooltips="1" connect="1" arrows="1" fold="1" page="1" pageScale="1" pageWidth="1169" pageHeight="827" math="0" shadow="0">
      <root>
        <mxCell id="2RodaU5CaoGVy-wO8Fqs-0" />
        <mxCell id="2RodaU5CaoGVy-wO8Fqs-1" parent="2RodaU5CaoGVy-wO8Fqs-0" />
        <mxCell id="2RodaU5CaoGVy-wO8Fqs-15" value="&lt;span style=&quot;font-size: 22px;&quot;&gt;Схема интеграций приложений&lt;/span&gt;" style="rounded=0;whiteSpace=wrap;html=1;" parent="2RodaU5CaoGVy-wO8Fqs-1" vertex="1">
          <mxGeometry x="10" y="10" width="340" height="80" as="geometry" />
        </mxCell>
        <mxCell id="_XjjVBNzUtTRRZKFKddY-13" style="edgeStyle=orthogonalEdgeStyle;rounded=0;orthogonalLoop=1;jettySize=auto;html=1;exitX=0;exitY=0.5;exitDx=0;exitDy=0;entryX=1;entryY=0.5;entryDx=0;entryDy=0;endSize=8;startSize=8;" parent="2RodaU5CaoGVy-wO8Fqs-1" source="_XjjVBNzUtTRRZKFKddY-1" target="_XjjVBNzUtTRRZKFKddY-2" edge="1">
          <mxGeometry relative="1" as="geometry" />
        </mxCell>
        <mxCell id="_XjjVBNzUtTRRZKFKddY-14" value="Отправляет&lt;div&gt;обращение&lt;div&gt;на открытие&lt;/div&gt;&lt;div&gt;депозита&lt;/div&gt;&lt;/div&gt;" style="edgeLabel;html=1;align=center;verticalAlign=middle;resizable=0;points=[];" parent="_XjjVBNzUtTRRZKFKddY-13" vertex="1" connectable="0">
          <mxGeometry x="-0.0571" y="-4" relative="1" as="geometry">
            <mxPoint as="offset" />
          </mxGeometry>
        </mxCell>
        <mxCell id="_XjjVBNzUtTRRZKFKddY-1" value="&lt;font style=&quot;font-size: 14px;&quot;&gt;Система кол-центра&lt;/font&gt;" style="html=1;fillColor=#dae8fc;strokeColor=#6c8ebf;shadow=0;fontSize=12;align=center;fontStyle=0;whiteSpace=wrap;rounded=1;container=0;verticalAlign=middle;fontFamily=Helvetica;strokeWidth=3;arcSize=11;" parent="2RodaU5CaoGVy-wO8Fqs-1" vertex="1">
          <mxGeometry x="667.65" y="556.09" width="203" height="147.83" as="geometry" />
        </mxCell>
        <mxCell id="_XjjVBNzUtTRRZKFKddY-15" style="edgeStyle=orthogonalEdgeStyle;rounded=0;orthogonalLoop=1;jettySize=auto;html=1;exitX=0.5;exitY=0;exitDx=0;exitDy=0;entryX=0;entryY=0.75;entryDx=0;entryDy=0;endSize=8;startSize=8;" parent="2RodaU5CaoGVy-wO8Fqs-1" source="_XjjVBNzUtTRRZKFKddY-2" target="_XjjVBNzUtTRRZKFKddY-6" edge="1">
          <mxGeometry relative="1" as="geometry" />
        </mxCell>
        <mxCell id="_XjjVBNzUtTRRZKFKddY-16" value="Отправляет оповещения" style="edgeLabel;html=1;align=center;verticalAlign=middle;resizable=0;points=[];" parent="_XjjVBNzUtTRRZKFKddY-15" vertex="1" connectable="0">
          <mxGeometry x="-0.216" y="2" relative="1" as="geometry">
            <mxPoint x="2" y="109" as="offset" />
          </mxGeometry>
        </mxCell>
        <mxCell id="_XjjVBNzUtTRRZKFKddY-2" value="&lt;font style=&quot;font-size: 14px;&quot;&gt;Система АБС&lt;/font&gt;" style="html=1;fillColor=#dae8fc;strokeColor=#6c8ebf;shadow=0;fontSize=12;align=center;fontStyle=0;whiteSpace=wrap;rounded=1;container=0;verticalAlign=top;fontFamily=Helvetica;strokeWidth=3;arcSize=11;" parent="2RodaU5CaoGVy-wO8Fqs-1" vertex="1">
          <mxGeometry x="287.65" y="530" width="255.16" height="200" as="geometry" />
        </mxCell>
        <mxCell id="_XjjVBNzUtTRRZKFKddY-17" style="edgeStyle=orthogonalEdgeStyle;rounded=0;orthogonalLoop=1;jettySize=auto;html=1;exitX=0.5;exitY=1;exitDx=0;exitDy=0;entryX=0;entryY=0.5;entryDx=0;entryDy=0;endSize=8;startSize=8;" parent="2RodaU5CaoGVy-wO8Fqs-1" source="_XjjVBNzUtTRRZKFKddY-4" target="_XjjVBNzUtTRRZKFKddY-2" edge="1">
          <mxGeometry relative="1" as="geometry" />
        </mxCell>
        <mxCell id="_XjjVBNzUtTRRZKFKddY-18" value="Анализирует&lt;div&gt;кредитные&lt;div&gt;риски&lt;/div&gt;&lt;/div&gt;" style="edgeLabel;html=1;align=center;verticalAlign=middle;resizable=0;points=[];" parent="_XjjVBNzUtTRRZKFKddY-17" vertex="1" connectable="0">
          <mxGeometry x="-0.7785" relative="1" as="geometry">
            <mxPoint x="126" as="offset" />
          </mxGeometry>
        </mxCell>
        <mxCell id="_XjjVBNzUtTRRZKFKddY-4" value="Отдел кредитования" style="shape=image;verticalLabelPosition=bottom;labelBackgroundColor=default;verticalAlign=top;aspect=fixed;imageAspect=0;image=data:image/png,iVBORw0KGgoAAAANSUhEUgAAAGAAAABgCAYAAADimHc4AAAACXBIWXMAAAsTAAALEwEAmpwYAAAQAElEQVR4nO1ba3RUVZa+09O9Zjm2IlC3CBBJVeUd8iStNIoyiEKIINi2gyLviPPDpd3ar5lpZzGzWkcRHwwNtgg2khAIAQlJqvKgKqlK5GEgg63TC8kDAiGBEJJUVSCIgO5Z+5xz655761YeJHQlVfWt9a2VqlTdx/fts/c+59wShBBCCCGEEEIIIYQQQgghhBBCCGEYwvrC6FH2LP0S+yrdRkeW7nNHlq7JkSU6HVki2FdxXClCJXKFCJXLKSuWMS4VwYZ8TnfN3/czYmBbNmaiI0uXbc/Sfet4XgQvZlHyBtglA5gJFctVBiwRz/v7vkYE7Ct1v3SsEm/wgldx7M0EfhR4DFjmMcDu73sb9nCs1G2QhPUIv9qbmiZojQJlGvqDv+9v2KLqBd2Umt/od/kU/wVG6XVvo8CHAdZn9dP8fZ/DDtUrxyQ4XhArJBEVBnDiVzPyJvCjwKcBzATrYhFKnhTrSubrk/19z8MG9izdK47nddf4KPZpwL8wciYMxIDSnxMDwLxQd6V4gThHCGbkPy38vf158UNfKWSoR0D5Iio+0rJQBMsT4reW+frHhGCFI0u3zRPpGl2MVw2QhNcyoI8acGCRCKU/Ywag+MgFIpjn6y6bM8fEC8EGxyrdv3uJpu5g8G+p/dTogHwWYe4YJPKfEaH0KZUBC5gBT4hgnqf7sjZd+JEQLLAvF1Ptq8SbmsKrU8cKVhM0TOhtHoDfsz4nQtnPad5HA0rUBqD4yPkiFD8+9ldCsKByhe6wJLido0d4jQkUto/S/zxCZ3FcxSKetJkilP2zCGVPMwOk6GcGWHgD5lMWzdO15z8dfocQ6LAu1U8jUc5zBeXBF8PgzGYTOIsTwFWaCBd2xsPXb5vg0IvjpRksIUY2tpPIA88yPkOLLLIqKwz+7w8maNmWAF2FieAuSwRn0WRoWG/COYC3AfNwBIhQNHfsYiHQUbFc/FAR6Ssoj7wcBs7CeLh8IBGuWJPhii0VeiqmQE/lT+Bq5X3QUZAGpz+Ih+OvGeDwSxPBvioMbEv0hPaVYVDz6iT4el0MXNqbClft95Pv4HfxGHgsPCYeuz0/FqzPjpPzP2dAcaaYJwQ6KpaLx6VVykpGR5YeOgpi4fKBJLhiTYErtjToqUiHnsr7qJiOn8I3VdPgm6oH4JvqBwmvVU9XkLxfhXyAfBa/g9/FY+Cx8Jh4bDzHuY+jWAfE8r80AjJ1jUKgw7ZUdJKczuX4+vUGFvkp0MPEv2q/D646pjLhUXQm9mcPwbXPHvbBh5gZ0zkjppJjEUM9JiRC7W/C5ej3pCDxqhDosC0Vr3sK6zKc1Y6D7rLJcuRXpnNRTyP+WrUk+gz49iDynygPzaSUXh+cQT5DPlv9EBsVD3CjQRoJydCeH09rgJx+oDBTDPx9AusS0YmdisSv3zZwOV8pvhzxMzjBH4HryMOzlDz0CPmfZIhiRHhMkNIRrQlHXproiX40oGiueFEIdFiX6M5I3YxtqQgdBQmegouFUy2+J+I9oj8K1488RniDUXpN/nd4FjXCMyJUJpCaQAtz4x+jqPgk/+uhMENfJwQ6rEvEasmAIy+PJ5FI8j52O3aW8zHtSOIfmskingp/48hsuPH5HMYMRvb6yGzZCM9ooCbQdDSNnIN0R7Y0cJckQclCPYt+PY4AqxDoOLBYt5308c+J8Nc3DYrU8w2JfinnY+TL4svCZ8DNmrlwsyZTxbmyGWiEZMLBmbQuYE3AYi7VA5aKjrwcTqKfGDBH3CoEOqyLda9Jk6jW7DhWeKXol1LPwySFqMX3CH/0cfju6Dz47hjj0XnkPdkItQmsJkipiI0CPHfdukgW/XrYP0f/mhDosD2rX0gMeE4EtyVJlftVqefwLJrnJfFReCL6fPju2BMq4nuSEZIJj7GawKWiqgcVtaBt12RqQIYeimaLTwmBjopFYiQuHVStDlOmn6pp2tH/+Wy4WZMBN49myuLXPgHf1y5QEN+TTcCRgOnIexTQOcI0OQ1ZU6HkyXFYgGH/nLGxQqBjzRrhB+XP6C7X/i6cGqCVfryiP5OlHE78/12oJG8CpqSaTK9RoJ2GUuGz1eFQOFu8ihtEQjCgfJFYc2KtSc7/DskAPv1IuV+KfrX4T8L3x39GiX+rTMDvkKLMaoEnDZFijC2pXAe++L0BCufojwmBjub88DsaciPWVv1Cd/nUxii5/fTK/3LxlXO/ZIAsPhx/itBjgsIArAW8AY941QGpHa1/LxpsWfrLeG14jUKgomm3aUtjbgQc/g8RWj6JvTUDuOiHL54i5EeB0oC5/TKgeUssVP9WD3htTXmmj4RARVOe6Sre5NG39GQtpqdfBmSoRsACbgRQ9m8E8ClIacDFvAT4/HWPAT1CoOLMblMT3uQXm/TgLknsowbMUtUALMKqGqAgqwGkJZ2nqgGzeq0BbksiHN9IDcBrFAIVTbtNe/Emv9yip2v/NuyC0jUmYdSA615zgP51QfxcgC5NzGIzYnUXRGfDeC14TWwE7BECFU15xn/zMqBCWoaQ1oC0ZsEZXq3od4o5gFYLKqcf5TwAlyO4eYANDUiUDcg3/asQqDidZ3hYNoBtwKhnwqo0pBwFnAmK2TB7TZYkMr2jXyP/e1ZF2QaNZABeoxCoABD+rjF30jt/+UjffbkcN2GSe10LkouxZEIGtxbE1oMIH+fWgqQFOboq+m0fa0Fkr7h8MuA1NeZGrMNrFIIB3WUJLA2xUUC2IPnVUHUqeky1GsqviM5VrYZyS9Ie8bnot0t7AnSPGK9FCDZ0l8WB9yi4X7EfIO+Esc0Yz34Avycg7wXI+wHypgzdouT3A+73in68FiHY4C6J/b67nI0CVgvIUxCsJfU2QdobUO6KqXfD5I0YtfhS66nM/XgNeC1CsMFdEt0ljQJFR6Q2wZOONPaFD6Hg3vvBdMar3pifygqv3HpK0e+yRHUIwQaXJbKquzQGusv4h7HSVCbQR1L4x1EUT0V4kQnv2QdmaUchvpR6Esm53aUx4LZEBd9vxpxmw6/dJdHQXRpLiqCmCdgZ4fzAMxrw2aCHfDwbhKJLzwWxB7RIv68hPqaesgRybndJFDiLjK8KwQb3vgljXZbIHo8JpB5oPJZIHlPhjOCejiObK5LgkuiS8OSBrPs1H0/Ec1Hxo8FlNl12mSeNFoIRLrNhjdsSSYToLo3TMEF6RJEZgdGMrSrhNBV/ylpMXvh0cgxv8ePIOfHcLrPx90KwAkqi/sFpNhyVTcB0FC8XZvK0nNII6WFdMm8gpiDvkx/G9RI+hSu48Z7Ix3M6zYYavAYhmNFVZJrkNBsuuRQmYHdERwM1go4IUh9IjZiiTczxNj7ik+gxMOrL4uS0g+IXGzudpREGf9//sICryDDbWWy45rKYSFF0l8RwoyHBMyI8ZuDI0KQkOo14KrwU9THk2HgOPJezyDTL3/c9rOA0R8x0mQ3dLrORpAeSJrBNZSNCYUY5jgwV8T1edCnisc2U8z24io1X0HB/3++wRLfF9KDLbHQSocwmZkQUS028GdQQJdn7+BlJdPwuEd5ExTcbnW5z5AP+vs9hDWdphMFZbDjIBKO0KM2QiUJLYkcrRbd4RCfEgusqjIzy9/2NCIB9xg/P5XMGKGii4mpRjnQFW/YYAWrTg+dnqEOBE9uN0LDDCBf2+TKib14sMEJDrhHwWP6+nxGHE9upcMjGXCO07cM00rfoTiZ84075+yEDBmnACcaTOUY4s9sIbQVG6CyURe8sogadyTPCyWzv74UM6CfSK1yRUw44V6fZnDu0RBwM4/a358QVtD8fvbfNdCsBEbBIO9ARn2Z1/meq1flVmtUJqQeQXTDkBhS0Q9y+dohFfnrxy5i9bWti8y8F/tPQWkivhR+l2TqfSbM6HVT0LsKUcsayLqjNSR4y8Y9lJ6PohDF7KaP3tEF0/oXvo3e32SPzLyyaYYcfCsEgfKq1a1lKeVc9Eb1cFhyZXNpJmFTSCQU7nxwyAz7NWQgxeyTRKaN2Iy9AZB7jzvNNpl1tv4gqqQ/Mxbk0a2dGSnlnPS96clmnQnRCSwckWjrglU83D5kBL+36AKI0RDftYtx5Hoy5jDvOnzTktAbOUkW6vVuXUta1Rx3lyR7BO4ngiWbKycXIS5BSdB7Kd8watPjW7BkQn3eWis4Jzotu2IFsBUNOK0Qgs1shYnvr7gnbW8YKIxmppR2PJpV2tvqK8kQUnBM9oegSJBRSxu+/BBn7DkFt9q3XgmPZSfDozmo5ytWi5zDRUfDsVpi0vYXykxa4F/nnlpaJn5ybKYxEJFk6VydZOm70FuWTi2TR44no7YSkY2Fdy7w9dqjOmTpg8auzp0JGro1PLd5RriX6thYI33YOwv9MOXFr880JHze/KIwkJJZ0rOWjnBc9QUv0gnZ1m6joWKbk18P7ua/AV9uj+xQeP/Nuzi8hecdJzdSiJfi9vOAfM25thgnILZRhm5vfEEYCJhdf+i9Z8A5FlCf4iPLYfRe120TWtUgFdGreV/Bq7nrIzl4MldnT4fj2BMKK7OnkvVdy3oef7PjLwKNcQ/TxyI/OwvjNZyEM+SHyzPD+HXFCUcdKn1G+v/coj9EQXNEmDqSAcqJrRXm4jygf/5G36OOQfzpDqP/gDIibzi4ThiPiijsT4/df6hlslEep28SdXm3ireVyn6KfJZSjXBZ83AdUdP0mFL4JxI1NoNt4+qq44XSKMKywBn4Qt/9ijS/R5SjvYzK0axBR/snQRbladCL8H5GnYeyG0zBmw+lavGdhuCC24OKKW43ySH4yJInOCd5rm9jPAiqJHqYQ3XeUy4I3gW4DFX3s/5yGMcj1yFNwz/pTS4ThgphPL/41xmud5XZFeYt3atnaTEXvJcrDBhjlStFPEY5+/xSMfu8U3PPeKRj1TuMJAcD/P+aI3tv+8EAKqNGX6Nm3McoVovce5WO5KCeCc6Lf824j4ah3KH/8zqnp/tZfiMpve5sK3gZRfUT54Apos7JNHFSUN/Ue5e8zwd9TCj5qXSPcva4B7n6b8q61DW/6W3/BtOv8kX5HeT8nQ+GDLqBNXNcyuCi/mxP9Lio63LW2Hn78Vj3c+WbdIX/rL5hyWy/crjZxvOZkqPc2sT8FVCk6E/xdn1FOiIITvonC18Od/10Pd75R1+pv/QVDbuv1v/VkSO/Vm6sK6ACjfFQvUa4UvQ7+EfkG4+t11/2tvxBxuwron25jlJPU0iCL3luU84Jr0N/6C722iQOI8rDBtom3FOUNfUd5H/S3/sK92851D1mbuGkwUa5VQBt8p5YBRLkv3vH6SZe/9RcmfnyuYOgnQ039axP/RlHuk6/X7fa3/sKErS2x47c0dw24TRyiydDdvUU5aRU50QcruCL66zrueKs+XBgOmLCp5d6wzWfzwz486x7KKB/dv8nQLRfQWxL+jZNujPxhI34IIYQQQgghhBBCCCGEIIw0/D/3yz4YG8CD8gAAAABJRU5ErkJggg==;" parent="2RodaU5CaoGVy-wO8Fqs-1" vertex="1">
          <mxGeometry x="73.92" y="530" width="76" height="76" as="geometry" />
        </mxCell>
        <mxCell id="_XjjVBNzUtTRRZKFKddY-7" style="edgeStyle=orthogonalEdgeStyle;rounded=0;orthogonalLoop=1;jettySize=auto;html=1;exitX=0.5;exitY=1;exitDx=0;exitDy=0;entryX=0.5;entryY=0;entryDx=0;entryDy=0;endSize=8;startSize=8;" parent="2RodaU5CaoGVy-wO8Fqs-1" source="_XjjVBNzUtTRRZKFKddY-6" target="_XjjVBNzUtTRRZKFKddY-1" edge="1">
          <mxGeometry relative="1" as="geometry" />
        </mxCell>
        <mxCell id="_XjjVBNzUtTRRZKFKddY-8" value="Уточняет детали&lt;div&gt;открытия депозита&lt;/div&gt;" style="edgeLabel;html=1;align=center;verticalAlign=middle;resizable=0;points=[];" parent="_XjjVBNzUtTRRZKFKddY-7" vertex="1" connectable="0">
          <mxGeometry x="0.0591" y="-4" relative="1" as="geometry">
            <mxPoint x="-23" as="offset" />
          </mxGeometry>
        </mxCell>
        <mxCell id="_XjjVBNzUtTRRZKFKddY-24" style="edgeStyle=orthogonalEdgeStyle;rounded=0;orthogonalLoop=1;jettySize=auto;html=1;exitX=0;exitY=0.25;exitDx=0;exitDy=0;entryX=1;entryY=0.25;entryDx=0;entryDy=0;endSize=8;startSize=8;startArrow=classic;startFill=1;endArrow=none;endFill=0;" parent="2RodaU5CaoGVy-wO8Fqs-1" source="_XjjVBNzUtTRRZKFKddY-6" target="_XjjVBNzUtTRRZKFKddY-19" edge="1">
          <mxGeometry relative="1" as="geometry" />
        </mxCell>
        <mxCell id="_XjjVBNzUtTRRZKFKddY-25" value="Обслуживает в отделении" style="edgeLabel;html=1;align=center;verticalAlign=middle;resizable=0;points=[];" parent="_XjjVBNzUtTRRZKFKddY-24" vertex="1" connectable="0">
          <mxGeometry x="-0.5659" y="1" relative="1" as="geometry">
            <mxPoint x="-190" as="offset" />
          </mxGeometry>
        </mxCell>
        <mxCell id="_XjjVBNzUtTRRZKFKddY-29" style="edgeStyle=orthogonalEdgeStyle;rounded=0;orthogonalLoop=1;jettySize=auto;html=1;exitX=1;exitY=0.5;exitDx=0;exitDy=0;entryX=0;entryY=0.5;entryDx=0;entryDy=0;endSize=8;startSize=8;" parent="2RodaU5CaoGVy-wO8Fqs-1" source="_XjjVBNzUtTRRZKFKddY-6" target="_XjjVBNzUtTRRZKFKddY-28" edge="1">
          <mxGeometry relative="1" as="geometry" />
        </mxCell>
        <mxCell id="_XjjVBNzUtTRRZKFKddY-30" value="Просматривает&lt;div&gt;медиа контент&lt;/div&gt;" style="edgeLabel;html=1;align=center;verticalAlign=middle;resizable=0;points=[];" parent="_XjjVBNzUtTRRZKFKddY-29" vertex="1" connectable="0">
          <mxGeometry x="-0.1465" y="1" relative="1" as="geometry">
            <mxPoint as="offset" />
          </mxGeometry>
        </mxCell>
        <mxCell id="_XjjVBNzUtTRRZKFKddY-32" style="edgeStyle=orthogonalEdgeStyle;rounded=0;orthogonalLoop=1;jettySize=auto;html=1;exitX=1;exitY=0.5;exitDx=0;exitDy=0;entryX=0;entryY=0.5;entryDx=0;entryDy=0;endSize=8;startSize=8;" parent="2RodaU5CaoGVy-wO8Fqs-1" source="_XjjVBNzUtTRRZKFKddY-6" target="_XjjVBNzUtTRRZKFKddY-31" edge="1">
          <mxGeometry relative="1" as="geometry" />
        </mxCell>
        <mxCell id="_XjjVBNzUtTRRZKFKddY-33" value="Проводит платежи&lt;div&gt;Открывает текущие&lt;/div&gt;&lt;div&gt;счета&lt;/div&gt;" style="edgeLabel;html=1;align=center;verticalAlign=middle;resizable=0;points=[];" parent="_XjjVBNzUtTRRZKFKddY-32" vertex="1" connectable="0">
          <mxGeometry x="0.2857" y="-1" relative="1" as="geometry">
            <mxPoint as="offset" />
          </mxGeometry>
        </mxCell>
        <mxCell id="_XjjVBNzUtTRRZKFKddY-6" value="Клиент" style="shape=image;verticalLabelPosition=bottom;labelBackgroundColor=default;verticalAlign=top;aspect=fixed;imageAspect=0;image=data:image/png,iVBORw0KGgoAAAANSUhEUgAAAGAAAABgCAYAAADimHc4AAAACXBIWXMAAAsTAAALEwEAmpwYAAAOzElEQVR4nO1be3CTVRb/dldnx792lHwRVxaStLS0FKEJoIiIiEIpT0WX97MCqwgqvlYFk8C6vnZcXd0dH+v44NnCUNqmaUtbkjZfKcUK6jqAUi2jIIpIkpYWBNqzc+7jeyXlUR5Jk/xmzkyb5rvfvb/fueec+6ggJJBAAgkkkEACCSSQQAIJJJBAAlGI8oXX/sGTY5zpmW94y5tj2OHNMTR6c0S/N0cEz3yVzRNhG9pcEbbNoVY5m9ksESrQZhhORno8XQYVs6+70Ztj+NiTY/jV+4AIIZZDTS2AhwvARKicoxNgpvhDpMfVJeCZZ3jUO188rSa8SmVnE0E9C2QBZssCeCI9tqiHd57hX5xYmfgFoRZWhHCzQBuGVkV6fFGLqoUGa92TxvUdkr+QGf/9bLOgAwHKpxmHRHqcUYfqedelexeKlZxEjQAq8quZqUVQz4IOBWAilE8XwX2P+JV7vPGmSI85auDJMTzmfcBwUu3FHQqwiJlKhAsRoOQ+IgC4JhmOF00URwvxjLz7hd95HhDf7iiEXOoZUDaFko9WPEmE4gnir8XjjXcL8QpvjuED2dPDVDEhOYATH06Ac+SArVNEKLmXCYDko00UwTXe0OzKvi5NiDd45xueDSFNX8Hgz7z8DFMBdZiEVW0Qz58qQslknQATmQATRHCNM3xebxOuFuIFnjniAM988UxY4vWhYy7LCWFEONs6AJ8rnyFC6f007qMAbr0ASD7aeBGKxnZ7XIgXbJtr2M4J96hMJj7MAgrLR/43megclc1nHk/KTBFK/0zJL71P5f1MgGK1AOOpFY4zHMm7v8c1QqyjfJZxCPFytc2lJi3uDgfesYC/KB0CJRlweF0a7H3FAjWLb+ArWGLo2VhOom2dxmwqTbJoVTnd4X+rLHDwg3Q4VpABwdIM8Bf2hf2vW3ANECrAOJwBIhSO6TZdiHVUzhHf1nj6XGq1S7uDvyANmrdmwPHym+B4xQBoqbRCy7aB0LptEBzNz4Rv/5MGu5abYPuSG8EzvztUzDQS88zrDnXLesLeV1Pg500DoNUzmDyDz2Ib2Ba2iW0fyUuF8mnXK/FfJUBRtrhBiHVUzhF38V3Kbcy8OUY4mp8KzVv7wfHy/nC8IhNaKm3Qsm0QJdN7C5yoGgInqm6FE1VD4UT1UDhZfZvG8DNi5DtDyDP4LLaBbWGb2Da+4/v3k1kFxOI/nwHZhgYh1lExS/STmK6K8V+/bmKe3x9aGPmtnkHQ6r1ZIZ6T7RsGJ323d2DDmBi3UaGIEDeTtoigsggZUP9kD8X75RAktgqxjopZ4ik5sc7GVe310FTal4WdTGjZZlN5/a3M2znpw+FXCe0OajUjqPHfpeHkO+S71cPkGaHMBmUmHMlLozlACT9QkC3G/jlB+UzRj5UKt72vmFQxn3s+JV/t8Qrhd8IptO0jtVZzJ/kbF4QKwWaEWgQSjmhOqF1yo+z9KEDhGPEnIdZRPtNwgFczFbNEOJqfLidcTJx68mWPl0m/C07V3k3sNDP+O/nb9pFUCHlG6EQgOYEm5oY3kyn5JP4boSDL+JUQ6yifKVZzAWqX3kA8kcR9rHY8LOZj2OHk14xgHk+JP107Ck7vGM0sixn7vXaUIoQ8G6gINBwNIe8g1VFFJgTd/cA9yci834gzoFyIdWydbviI1PEzRPjyRZMq9AyGE8T7ecxHz1fIV4jPgjN1Y+BMXbbOxihioBBcBGkEDUeYEzAx60JR7dIexPuJAKPF/wqxjvLphuV8EXXo4z4s8XLv56GHxnw9+TLxO8dC285x0PYJs53jyGeKEHoR7mCJmYUiNgvw3V+9msS83whbRhuXC7GOimnGSUSAGSIEi/vpYr8u9GwfSeM8Jx+JJ6SPh7ZPJugMP+NCcBHuZjlBFYqqhmpywY/r+1IBsoxQOEqcLMQ6KqeISbh1ULWguzb8kNgfxvt3jIIzdVlwZme2Qn79BGivn6gx/EwRAWcChqOOZsEQJQyVDwD3PddjAoYto7ulCrEOu134bdlUQ3P90z2oAOHCT4j3Z7OQoyL/00laU4uAIakuO2QWhA9DA8C3oAcUjBJb8YBIiAeUTRHr9rxsUeK/lwugDj889nPv15N/D7Tvupca/qwTAZ8hSZnlAjkMkWSMJamSB3Y/Z4KC0cZPhFjHd3k9rtm/ttfLVY8Ymr95K1kpP0Piv5J8afgZqxJAIR92TSYmi1A/SSUAywWyAHeG5AFejn79Wm+oyDE2Y9+wj0KsojHX8l7D2l6wfYUIBz9MPU8BxmgFUHk/7J5MTD0LOiPAd++lQvVTRsC+NW6wvCvEKho3WFpxkDtfMpK9mJYOBRhxlhkwUTUDqCkzYKJOgKzzEuCnDemw42+yAC1CrOJArqURB7n730YIujPOkQNG6nIAJmFdDtAYywGkJB2nywEjz5oDgsUZsOstKgD2UYhVNOZaNuEgP3/PSPf+K7AKsoVZhFEBToWsAc6vClKvBejWxEi2ItZXQXQ1jH3BPrEZsFGIVTRuMD+jCIAzQL0NwfeAwq2Cs0JK0TbNGiBcCaqEH/U6gOwJeVXrgAqdAHmWvwqxim83mG7XCFDeP3QlrAtD2lmgEkGzGma/ky2J7FDv14Qf7UqYH9BwAbCPQqwCQPhNw9qe//jsXWNTc5n6ECb8XpBSDXERslR7QWw/iNhY1V4Q35Cju6K/nmMviJwVl/UF7FPD2l6vYh+FeEBTaTrLA2wWyAcxygmYNhTdrdsNVe+IjtHthqq2pGXyVd7v4WcC9IwY+yLEG5pK+0DoLOB7QrQkpVvSqsMYfh6gORPgRj9Xwg4nX38eMDjE+7EvQrwh6E5tbypL1+QCcguClaShIvCzAe2pmP40TDmI0ZPPS0917O8H2AfsixBvCLp7H+OzQC5JsSLSiyCHo+Gh58I1SHjoeTBdcOkP5m9miVepfLj3B4qTjwrxhkBxUlWwJAWaStOguYxfxsrUiYBXUobqDudVtyJCjBEvnwOrrqZo7gfRS1r47qaSFAgWJ8ff/4z5XaYngu7e0FSSSpKgciNOJQJWRrg+kGcD3g0a1sHdICSd3wtiF7RIvd8R+enk3dgHf6F5mRBvCG7+Y7dAcVKLLIKcD3TXEskdIZUQTAxq7BKW5lYcI55cyBoc9noivouTH3BZmgOuntcK8YiAy2QPFicRIppK+oQRgV9RZEKgN2OpSmyIzm5hJaaaeBtpI5T8PuSd+O6Ay/ycEK8Ad/Lv/S7TTkWEVJYT+qruiWqF4Jd1ybqBiII2SLmMG0J8f1XCTZM9H9/pd5nqsA9CPONYoaWn32X6OaARAasjOhuoEHRGkPxAcoQ1vGGMr1B7fD/aBnp9aR8l7CD5ReZf/CW9TJEef1QgUGga5S8ynQwUWyDoToagO0U1G9LlGSGLgTMjrHHSqcdT4rnXp5C28R34Ln+hZWSkxx1V8Lt6jQi4TE0Bl5mEBxImsExlM0IjRhnODJ3hZ2rSucdjmanEewgUmY+j4JEeb1SiqdgyNOAy+wlRLgsTIpmFJrUYVBCtsc/xO5x0fJYQb6Hku8z+oCvp1kiPM6rhL+ll8heZJEYYtWKtGIoh0Zzs3lrSi2XSiWHCDRQkJUd6fF0C4Bl+1fd5KgE0ZqHkhjPF0zV2cKMZoN4WP/+Geimw5yMz7F9jhsObOxLi3PZTvhn2rzUDthXp8XQ57PmIEofWsNYMP27GMHJu0v2M+IZ1yvMJAS5SgD3M9q02w4FcM/yYb4ZfChTSfymkAh3YYIZ9H4c+lxDgPGGTViWlbnnkw5SNS74JR+LFWMqmpQ2p+Y98ONBnt3TGIWIWmbUr02w+p8Pmc3xhk5xgXr2Q2KUWgLeL77BJzs+tksM+UFoZ+7ehw8FW/87VA2tWTrVKDi8jRDZO1PefvQl7V6dcNPHYxve739ALQM3naLdKTk+m5Jgy3GO/SogH4m2+lbNtkuNrPfE2LsCaRXQGNLjh5LG98G3R2E6Tj89iG3saiqkAaxaFfScVw9lo9TkeSXa/EZubc5nV9qyzEW9j1nvjEkLW1C1PQHvbaWhvPwP+/RuhYctd5008fhefwWexjRlbHidtpmxactZ3o1l9jn02yR47WxU2j91g9Tk3nmvgNmb9yp6Rw8XufZtBjdYjn8KR3a/BgbLpsH/TUNi3Np0Y/oyf4d/wO2pgG7w9bPt8+2GTHLmD6v7eTejKGOiz32XzOQ+d/6CdOHDonfcwIeyW9YvhxPFD0FmcbDkMQ3NpW9gmtn1BffE5Dtok5wihK8IqORZYJefpCyPfSeymiufAvJrmgqfLnieh5ILR3gYrtjqY9y8ibXamL1bJccbqcywWuhKsPsfLnRmsTWVpWx6TQ4f3izUXzD8+w59PK3jsovrCZsMLQleAzedwXvRgJUyGdkje8BANH2sWwsGD0nmTf/iHHZDKqqnk9Q+Ctdp+8QIQEZzR/X/EmTWOeZdkoBK1/pXPyWXpsNyHoSXYeE7y8Tv4XV52YhuXsk9YRgvRiIE19gybz9lySQcrOaGv+0k5lEzOXwanThztkPzTJ4/BlPwn5O9nuJ+6tOTTMrV1gG9lfyGqAPbfWn3Ouks9WBuz1C2PyqQ+7H4W2k63hpDfduYELCtdLn8vNf/Ry9IXao56HLMQLbBKK+devsE60eugd95imdyXKl/QVkbtbfBP70vy3/G7+Mzl7FOmtHKmEC2wSo4vL+dgbShCtR2S1tOkjLa+7k2Zf/yZf568/iHIrHr+svaFmM+xRwCI/D9zZNbYb7/sg5WY13lWgGXdgzLZ7l3vE+O/J637CwzwrLgifaEi2G+LNP+Czed85YoNWMLKaDlY1tLKSG0WrHg6udjqvDlejDT/gk1y1l7ZQTs1+0XKPs/TV5h8zE3OmkjzL1gl5+ErPXCb6twg7D7/lTKf81A0rHxPxa8AjlPREIIgbgWQnJG/7pIQIMKw+hxNcTsDfI5ANMyA/LgVQHLkRpp/Aa922CTHsXgTwOpzHB28w95DiAYMrFr1J5vkzLP6nMFYF8BKxujIjRryE0gggQQSSCCBBBJIIAGhq+H/6ooShb9zU7QAAAAASUVORK5CYII=;" parent="2RodaU5CaoGVy-wO8Fqs-1" vertex="1">
          <mxGeometry x="567.65" y="140" width="76" height="76" as="geometry" />
        </mxCell>
        <mxCell id="_XjjVBNzUtTRRZKFKddY-22" style="edgeStyle=orthogonalEdgeStyle;rounded=0;orthogonalLoop=1;jettySize=auto;html=1;exitX=0.5;exitY=1;exitDx=0;exitDy=0;entryX=0.5;entryY=0;entryDx=0;entryDy=0;endSize=8;startSize=8;" parent="2RodaU5CaoGVy-wO8Fqs-1" source="_XjjVBNzUtTRRZKFKddY-9" target="_XjjVBNzUtTRRZKFKddY-4" edge="1">
          <mxGeometry relative="1" as="geometry" />
        </mxCell>
        <mxCell id="_XjjVBNzUtTRRZKFKddY-23" value="Согласовывает&lt;div&gt;специальную ставку&lt;/div&gt;" style="edgeLabel;html=1;align=center;verticalAlign=middle;resizable=0;points=[];" parent="_XjjVBNzUtTRRZKFKddY-22" vertex="1" connectable="0">
          <mxGeometry x="0.1651" y="-2" relative="1" as="geometry">
            <mxPoint as="offset" />
          </mxGeometry>
        </mxCell>
        <mxCell id="_XjjVBNzUtTRRZKFKddY-26" style="edgeStyle=orthogonalEdgeStyle;rounded=0;orthogonalLoop=1;jettySize=auto;html=1;exitX=1;exitY=0.5;exitDx=0;exitDy=0;entryX=0.25;entryY=0;entryDx=0;entryDy=0;" parent="2RodaU5CaoGVy-wO8Fqs-1" source="_XjjVBNzUtTRRZKFKddY-9" target="_XjjVBNzUtTRRZKFKddY-2" edge="1">
          <mxGeometry relative="1" as="geometry" />
        </mxCell>
        <mxCell id="_XjjVBNzUtTRRZKFKddY-27" value="Расчитывает ставку депозита" style="edgeLabel;html=1;align=center;verticalAlign=middle;resizable=0;points=[];" parent="_XjjVBNzUtTRRZKFKddY-26" vertex="1" connectable="0">
          <mxGeometry x="-0.5379" y="2" relative="1" as="geometry">
            <mxPoint as="offset" />
          </mxGeometry>
        </mxCell>
        <mxCell id="_XjjVBNzUtTRRZKFKddY-9" value="Отдел депозитов" style="shape=image;verticalLabelPosition=bottom;labelBackgroundColor=default;verticalAlign=top;aspect=fixed;imageAspect=0;image=data:image/png,iVBORw0KGgoAAAANSUhEUgAAAGAAAABgCAYAAADimHc4AAAACXBIWXMAAAsTAAALEwEAmpwYAAATFUlEQVR4nO2cB1RVV7rHz8waKRZQ79lXRBHpRYqKLTZE6RbABiqiiPpmxZlx5s1bWXkvebqyRicmluSZMRkLQcSOCkqvF41lLDGzJk6eYgXBijWixva99e2zz7nn3ArCPLjkfmv911KQc/b9/f/n2+Ve5DhrWcta1rKWtaxlLWtZy1rWspa1rNXOqvC3nraVqXxoZSq/rDKVL6qcz/+9Yh65XjGPf1qZwj8vn8vfqZhLqsuTSUF5Mv9x6Vwy9egCVbe2HrfFV9lcZ1VVGr9Ms4C/rVlAgCqVQCVqPoHKeYIqUpjmEihHJRMon8M/L51DCsuT1fHLl3O/bOvXYnFVtYiPqVrI36pKI4AyZkCFMQOSCZTNEVQ6i5wvnqWaAxz3i7Z+XRZRhxeTeZo08rpqoQBfMiCVGTC/GQbMFlQ6i6qiLJH3buvX165Ls1A9omoheaUHvwkGlCtakEEDoDSRf1KSRKa39etst1WVxp+QwzfafowZkGzGgCQCxUnkTclM8lFbv9Z2UZp5xKlqEb9Us5Av1aTxt03Bb3b7MWJACSqRQPEM/s/cz7WOpDoRTRpJr0ojr+TATcJvqQFJzIBEppkEimbyH3I/t9IsUA2pTCXXzYJ/S/im2o++AeRN0TR1HPdzqaoF/KDKBeSBAvICIzICvzXaj2hAMZowgzwom6p25zp6Fac59NSkkhoRrMYE+OO/6aUPv5XTj/CLZwgqms4f6/D7hIp5ZDcC1TRB369w1gOvB1936Wkm/aYNIFA4lU/jOmrRsxw5UFSqAbHvXdvkCocXq03CN5f+prQfasB0ZsA0vqEs3lnFdcSqSOFPUJDzm6aazf3h/Op+TYffgvRTA6YJKkzogEvTimQykgJkMBWar9/jUXUZHvCw0A+OvttLCb658JuYftGAggTyKH+iYw+uI1V5CtkhwRPTbMiMedrv3dzuDT+WBsL1DB9t+kXwZuA3O/2iAVNxHiBQGM8v4zpKHVrcu3PFXP6JXopNaR6Bh3kB8KR8IDRWDIYfVnm0Dnwjk6+YfmpAAn0K6jWh3K+4jlDlKWS6CK5ClBkDji3pzeCHQGPlUKq/L3dTgG8y/OamPwGfAAKFcXws1xGqLJnPosBkCa4wo3Mr3Sj8p5qh8LRqODw7/A481YyE71d4Klc7xuAb6fslxuDL0i8akB/PZ3MdocqTSa1ucuVmlBvQ3X1BDP4IeHZ4JDw7MgqeHxkDz78ZC7VfD4SqNCez8HX7vqmVj276C9CAOP557hQLf1uzKLFXfwSFidUzwYjOvN8PnlZq4T8/MhqefzMGfjoaCj8dHQc/HQuDxopQOLfCFyrmqs3DN9d6cOmpk340oCCOQN4UdQJnyVU6m8yVWgWTKTMqU9TQkBvM2o4If6wA/1gYvDg2Hl4cnwAvjofDixMR0FgZBpfWB8GRX/eRwDcXvqH0I3xU/mSymbPkKp1N1kptYo55VX/mBU81w2jPf6YLn4F/eSISXv4tiimaKQoe5I2Fi58Hwonfu0JpktowfEOrHt30M/gFUwjkTyF1Fn0+VDqLL5H3aYV04J9+z4WudoTWM0rbdkT4JyLg5d8QfjS8OhkDr07G6iiGmREJjZowqM8cAv/4yBs0C5zNr3oMpR8NmEzg4GTiyVlqlcwi9fL+bMyMI7/uDY8KB0rp17aecfDimAg/Cl6dRPix8OrURHh9ahK8Pj2ZaRL9mmCE8ETgz6BxPx0Ng4YDw+Dcn7yhfK6T0VVPgX76qQEFk1SzOUsszTzH7rQnzzKtihQ13M0OhMbKIaz3y9M/XtZ2BPha8FPg9Rkm/DN+7RQaESs8CSci6c/iNfBaeM3GypFQ/ZkvlM3upUi/MfhUk8jnnCVWeZI6SD4xGjKjJIlAbboPNFYMoiufZ9h+cMkppv+4PP0xWvhnpsCbM3EKCUYwE06iCVHwUnoKxtFr4rWfVb0Dj4sGw7f/6aqffn34kDeRP85ZYhUl8RPpRKhrgkzLRnaDJ2XB9LhBr/2w3i+lH9uOHP638fDm2wSmeIUJQjuSPwVh8PybUHptYVM3jN7zwhoPyNdNvxz+JAKHJpJHnCVWyUzVvymWg8wM0ZDNMT1hTJ9OzIAQZoCw9NROvuF0UqWTrmSADP7ZqYLkJmA7ok8BTspRyjZEDRjJDAih9/6PwV0Nph/h500UdHCyuhdnaVUyk6ygO1BdExIJ5E3nYZKHHYxyNmUA6/+K9iNL/9mpAGenUUkmmDVgDDNguGBA+UAY28cG1ox21G89ogGxBA5Fk9GcpVXRTLIJ1+Alukok8N7wrjC2TycY2bsVDPjOgAGntfOAeQM6QbSrLeyJ5vXhiwbEkFTO0qp4BtlL197iZogZkB2ngnAXG9p+RvZuegt6TVuQTv9vdgsao9eCcBxhfW3gD4O6GoYfq4aDMRb4KbqiGXypfAcq6o9Du9EXrDRgsMlJmK7/mz0Jx5idhOUGRPWzgV1RvB78QzFUX3KWVkXTySnceUqaQeBgAg9RrrY6BgQJBphdhsYaWIYieDl8Mf3iXkB3GTqaLkPxpFUwIEgyILyfDSwb6mAIPhyMUlve0XThNFJNd5zi9n86gXVhjhDRz4a+YHEO+LE0EJ6UD2IbsRFGN2LCUxBL+7togkLSjljcDcs3YmgAtp9R9B54L7wnGoDjwPHguBK97PTgH4pWw8FoouEsrQqnkRvStp/p3eAuCgNGOaMB4luPynlAeArk50DCZCw8CdiOlEcR4i5Y6v1i+mn7GStbgg6HxkphAkbz5QbE9LeFzHCVDnw15EaSc5ylVUECfwfPW+SK87CDyH42MN7FBkL72AgGlAzQzgNmD+OilIdxCPyU7mGcbAd8LEw6hhB2wSNk7ScYfiwJoOPA8eC4Yvvbwsrhjgr4B6PUkBtFajhLq4J48pBu9dmp485YFUzsbwtRrjYwwcUGxvW1gdHUAH/WhgbSZGJCdQ/khFbETJCOo8WjaO2RNJ10Jfhi69FNv9B+8J5479C+wnhwXDi+pcFdFfCpARHqm5ylVUE8/1Q6bUwgsD6sO0xys4VoVxu6DBUn4odFfkIb0nsK5K1IeCdM/mbMS9EMqggGPlyWfB34mP5KWfpLA+i9MQg4HhwXjm+2t70C/sFINeREqB9yllZ5cfxL+ukCphUjHWCymy3ts9hvx9N5wAbqsj2VT4H0ZryuCeJbkuNl74zJhImnqRfbjghfbD1s7V8u9H68Z+0eLzoOsf/j+BI8bGFfBJHg50aq4UA4+YmztMqfQt7QMxZ22rhsWDeY4m5L+6y8DR1e0xceF/uyuSBIWBGxCVn3fWGFEQgak07TLiReAo//liVfgk8nXmHlg/fCe2pWu0jtB8eF45vqYQsZ43gJfm6EGnLC1W84S6u8yfwr6ZQxjsD7Q7pCvLut1IbEp2DVHBU8KvKGx8ViK2ImVCpNED4ZoTXCsBh4nHDFtsPgN1L4QuvBez0u8qb3xnGI7QfHN83TFtaP6inBRx2YQF5zllYHJvJP8YRR1B8Hd6WPt+5TEOtlBzf3u8PjIh94XOyvNAGfBJwTcGIWjcCWIpohkwB9lCz1w1nPF5PP4Jf403vd2O8Ok7zsFOnH8c3wsoNPR3SX4OeGqyF7Av+Ms7TKjlHdpYdb7Jj3vcFdabrEpyBGfApcbGDDYh4eFXoZMEH4aCLdpOG8gFDRiKp3hDfu5cIdrggel5qVQ4QJt3yg0HZk8PFeGxYL6Y/RST9uxv401FGCnxOuhl3j+FucpdXOKNUJ6Xh3MoEPhnaj6cIei2nDJV80MyHS1RbOfNlXZoIf7dN0Yi4LZk8DGhEiM2OYjoSPMGrBC6kXer7YdgT4333lAtGsFU6U9X4cX5K3HSwLcZDg50xQQ1ao6hhnabUjqucqPF0U9dFwB0j0toPp+BR4CCuOWNaKcBmYMrQz3Ml1M2ACexqoEQNpL6dmUIUwsb8jdJp4Br40gE24Wvh4jwUjukitB8eB48Fx4fhm+9jBf4d0k+Cjto3ll3OWVoXRxOMQHmyxI96VIxxglo8dzPSyk1rRZB0TVib2gAd57vCo0FOYmIt8FUYITwQzw6AQeqASfLEvvRZe80G+O6yY2V0Jn7UeHBeOb66vHXyIBjD4OWFq2B/asy9nibU7UnVVPN5dO9oRkn2FR5y2Ik9biGPzgWRCPxtYm9IDHua7waMCD5pYuRHYw6kZkiEysa/TPk8TL4L3otfCa36R1lOCj/fF++M4xNaD45vnZwcfDGYGjKfp/1/OUis7okcMni6iNob2gBQ/O5jjIzPBQ4AgfxJwTkj/DU+BPcx3Z0Z4wqNCNMKHtSc0hJnCUk7Fvo//VgvenV4rfQmvD1/W93FcOL5Uf3vhCRivhgNhtP+P4yy5toervsHj3R0RPH1xKb76JsQzE8SJGQ/Gru12gwd5aAJTgdwMLyPyFKCzxKMe5LtBzR43acKdbAQ+th4c38IB9vDB4K5wYLwaMkarSjlLr5KIXl12Rqhu5kQT+uLm+9vTFys3YRqbmKfIWtIPmW5waacb3JeboJA7NYWKpVxX9w+5waUdbvRaeF28Pt4H7yfCx0kXxzPfzw7SBtjD4gB7+K/B3SBzjOr63hn+NlxHqKzong6Z41Xf/y64M32R+GLlJsxkJiTIWhJCQ53f5gY39hkzwbhuHnCD81nCNVB4Xby+OOHKky+Hj/pDcJfNG0N6d+Y6Wi0Jso1aHGB3jpqA7chPgDDL245ugOJH+kLk/DQYs3KLBE7U5Z1udAlpDvydHOHJ0f35Ecs2QvicVIgf7k3vR3s+wve3l+AvCrCvXjig8ySuI9fiEK7TosDOMWkD7DNS/exrksYFQtS/fwgjMo/DoLIHMLAUdV8PoKjq7W5Qv88NGnKFOQKFf8av4feM/Zxvzh3wPXAHfA7cgUEbqmDCkvchaWwALBhgX7NogP3Xi/07Ry/vKL+YZ65CzkCnQeX3kgaVPagSoN+nCi5hKjZuwNvKZ/9tKu99gryyb4HX3ptvvPbc0njsvZkYqoFf/SzADyy7nxJccr+aQi/RAkcFFd2jCiy81+oGeGeL0AV57kHdBI/dTDtvXHXfdWupZ2G1LdcRa1DZvejgknvVcuhBxfcU0KkKGiCgoKHVDfA0AN19F9POG+C2g2n7jfP9s+ojuY5SIZrHfHDx/WzdlAdJwO9R4AH5ggbkoe62ugEUugy4HHr/7ah66J9VD66obfXgmlm/xzmzzrL/446BRQ3hgUX36o2lPACBy6D7H7oL/gcFndkW1GrwT2cGCsB1oWcx6Ah8Wz30y6wTtLUOXFBf19X12Xo9jLPECiy4tyiwoOGlqZQPOKSF7ofKvUOFK5b92+NbzYB92+Kwtein3BD0jDrom3Ed+n4tqM+W2lfO6bVLOEuqgMKGT+Qpl0P3NwQ9545imYirld/t/qrVDHg3a4ME3RBwFznwdKYtteCM2izIaWPtSs4SakDe3Y+0wBsUKffXSbmvBP223jLRL7sOirPGtxh+aWYoeGZeMZ1yA9B7ozbVQO+NNeCE+ivqWvv+Hxb9DzWkGk15rn7KfWTAvXGJyJaJ4oolfPcROL0tsEW9PzSzSi/lfY2kvPcmfei9UF9do1J/eQ3IhpoUrj2Wb969AL/cu43NSbmXAei6y8ToHRVwZNvwZsM/nDkcJmSUmm0tFPgmecq1wHt9KUBXb0DwV4H85Srwf7nylKy/Esy1q1oOv/TNvX3SGHRtys1shnYZXiYGZp2HtVm/h39kepkFj/9m9dal4Jf+z7dOuS50Cv4L1BVQrb8CPddfOYOvmWsv5ZNze/7bptxDvhkSoctWLPJl4uDM72Bp5jrI3DoLKjJHwdlMfyr889ats+C3GWshOP2sUehOCujGU64FfhX49QJ01f9cgZ6oz1GXofvnl5O59lLe+2+f89Y7Z2leyvubWSa6mJpAt9QK0E2k3KmZKVdCv0zV47PL0GPdZei+7jI4rrn0AwfQ9v+PhNe+O2O93yblutC3tWyZaDLlCuimU66SpZwCl0HvvvYSleMaQV3XXG7735703HvrUwH4LfA0k/K33gylo2qVy8QWpfyq6ZR/xoCvUwJ3XH0JHFZfBIdPBXX75OLHbc2fc99140STU97EzVDfFiwTpZRLq5aWpdxBBr2bAB26fVINXVdVQ5ePL7T9B7bcd9TfbL2UX2/CZsj0MrEpE6gSOgO+1mjKqRA41ccIvhq6/Lkauqy8UN/W/Ln+O+pfNGkCbfWUX9NP+Rdvl3JHEylXQr8AnVErmVZceNHW/DnXf9UE+tW/MOW0tVzUQjeVcjlwA2pr/pzJZWIzUu7U0mXiW6X8ovmUm1Fb8+dcMq4/brVl4oaWpNzQBHrReGtpRsqNyX7F+bb/3bE+6ddzWn8zdLVpy8T/p5Qb1YoLe9qaP+e8pc6n9+ba+81eJrbSZsjBVMrpUlEGvaXAFem/0GC/qrp9fGraeUOdi9PGmr1Of6151Jop79G0zdBbT6BvBX7l+UeY/HYD31rWspa1rGUta1nLWtayFmdp9X+feARdBkcHLwAAAABJRU5ErkJggg==;" parent="2RodaU5CaoGVy-wO8Fqs-1" vertex="1">
          <mxGeometry x="70" y="309.99999999999994" width="83.83" height="83.83" as="geometry" />
        </mxCell>
        <mxCell id="_XjjVBNzUtTRRZKFKddY-11" style="edgeStyle=orthogonalEdgeStyle;rounded=0;orthogonalLoop=1;jettySize=auto;html=1;exitX=0.5;exitY=1;exitDx=0;exitDy=0;entryX=1;entryY=0.5;entryDx=0;entryDy=0;endSize=8;startSize=8;" parent="2RodaU5CaoGVy-wO8Fqs-1" source="_XjjVBNzUtTRRZKFKddY-10" target="_XjjVBNzUtTRRZKFKddY-1" edge="1">
          <mxGeometry relative="1" as="geometry" />
        </mxCell>
        <mxCell id="_XjjVBNzUtTRRZKFKddY-12" value="Обрабатывает&lt;div&gt;обращения&lt;/div&gt;" style="edgeLabel;html=1;align=center;verticalAlign=middle;resizable=0;points=[];" parent="_XjjVBNzUtTRRZKFKddY-11" vertex="1" connectable="0">
          <mxGeometry x="0.3804" relative="1" as="geometry">
            <mxPoint x="1" as="offset" />
          </mxGeometry>
        </mxCell>
        <mxCell id="_XjjVBNzUtTRRZKFKddY-10" value="Кол-центр" style="shape=image;verticalLabelPosition=bottom;labelBackgroundColor=default;verticalAlign=top;aspect=fixed;imageAspect=0;image=data:image/png,iVBORw0KGgoAAAANSUhEUgAAAGAAAABgCAYAAADimHc4AAAACXBIWXMAAAsTAAALEwEAmpwYAAATFUlEQVR4nO2cB1RVV7rHz8waKRZQ79lXRBHpRYqKLTZE6RbABiqiiPpmxZlx5s1bWXkvebqyRicmluSZMRkLQcSOCkqvF41lLDGzJk6eYgXBijWixva99e2zz7nn3ArCPLjkfmv911KQc/b9/f/n2+Ve5DhrWcta1rKWtaxlLWtZy1rWspa1rNXOqvC3nraVqXxoZSq/rDKVL6qcz/+9Yh65XjGPf1qZwj8vn8vfqZhLqsuTSUF5Mv9x6Vwy9egCVbe2HrfFV9lcZ1VVGr9Ms4C/rVlAgCqVQCVqPoHKeYIqUpjmEihHJRMon8M/L51DCsuT1fHLl3O/bOvXYnFVtYiPqVrI36pKI4AyZkCFMQOSCZTNEVQ6i5wvnqWaAxz3i7Z+XRZRhxeTeZo08rpqoQBfMiCVGTC/GQbMFlQ6i6qiLJH3buvX165Ls1A9omoheaUHvwkGlCtakEEDoDSRf1KSRKa39etst1WVxp+QwzfafowZkGzGgCQCxUnkTclM8lFbv9Z2UZp5xKlqEb9Us5Av1aTxt03Bb3b7MWJACSqRQPEM/s/cz7WOpDoRTRpJr0ojr+TATcJvqQFJzIBEppkEimbyH3I/t9IsUA2pTCXXzYJ/S/im2o++AeRN0TR1HPdzqaoF/KDKBeSBAvICIzICvzXaj2hAMZowgzwom6p25zp6Fac59NSkkhoRrMYE+OO/6aUPv5XTj/CLZwgqms4f6/D7hIp5ZDcC1TRB369w1gOvB1936Wkm/aYNIFA4lU/jOmrRsxw5UFSqAbHvXdvkCocXq03CN5f+prQfasB0ZsA0vqEs3lnFdcSqSOFPUJDzm6aazf3h/Op+TYffgvRTA6YJKkzogEvTimQykgJkMBWar9/jUXUZHvCw0A+OvttLCb658JuYftGAggTyKH+iYw+uI1V5CtkhwRPTbMiMedrv3dzuDT+WBsL1DB9t+kXwZuA3O/2iAVNxHiBQGM8v4zpKHVrcu3PFXP6JXopNaR6Bh3kB8KR8IDRWDIYfVnm0Dnwjk6+YfmpAAn0K6jWh3K+4jlDlKWS6CK5ClBkDji3pzeCHQGPlUKq/L3dTgG8y/OamPwGfAAKFcXws1xGqLJnPosBkCa4wo3Mr3Sj8p5qh8LRqODw7/A481YyE71d4Klc7xuAb6fslxuDL0i8akB/PZ3MdocqTSa1ucuVmlBvQ3X1BDP4IeHZ4JDw7MgqeHxkDz78ZC7VfD4SqNCez8HX7vqmVj276C9CAOP557hQLf1uzKLFXfwSFidUzwYjOvN8PnlZq4T8/MhqefzMGfjoaCj8dHQc/HQuDxopQOLfCFyrmqs3DN9d6cOmpk340oCCOQN4UdQJnyVU6m8yVWgWTKTMqU9TQkBvM2o4If6wA/1gYvDg2Hl4cnwAvjofDixMR0FgZBpfWB8GRX/eRwDcXvqH0I3xU/mSymbPkKp1N1kptYo55VX/mBU81w2jPf6YLn4F/eSISXv4tiimaKQoe5I2Fi58Hwonfu0JpktowfEOrHt30M/gFUwjkTyF1Fn0+VDqLL5H3aYV04J9+z4WudoTWM0rbdkT4JyLg5d8QfjS8OhkDr07G6iiGmREJjZowqM8cAv/4yBs0C5zNr3oMpR8NmEzg4GTiyVlqlcwi9fL+bMyMI7/uDY8KB0rp17aecfDimAg/Cl6dRPix8OrURHh9ahK8Pj2ZaRL9mmCE8ETgz6BxPx0Ng4YDw+Dcn7yhfK6T0VVPgX76qQEFk1SzOUsszTzH7rQnzzKtihQ13M0OhMbKIaz3y9M/XtZ2BPha8FPg9Rkm/DN+7RQaESs8CSci6c/iNfBaeM3GypFQ/ZkvlM3upUi/MfhUk8jnnCVWeZI6SD4xGjKjJIlAbboPNFYMoiufZ9h+cMkppv+4PP0xWvhnpsCbM3EKCUYwE06iCVHwUnoKxtFr4rWfVb0Dj4sGw7f/6aqffn34kDeRP85ZYhUl8RPpRKhrgkzLRnaDJ2XB9LhBr/2w3i+lH9uOHP638fDm2wSmeIUJQjuSPwVh8PybUHptYVM3jN7zwhoPyNdNvxz+JAKHJpJHnCVWyUzVvymWg8wM0ZDNMT1hTJ9OzIAQZoCw9NROvuF0UqWTrmSADP7ZqYLkJmA7ok8BTspRyjZEDRjJDAih9/6PwV0Nph/h500UdHCyuhdnaVUyk6ygO1BdExIJ5E3nYZKHHYxyNmUA6/+K9iNL/9mpAGenUUkmmDVgDDNguGBA+UAY28cG1ox21G89ogGxBA5Fk9GcpVXRTLIJ1+Alukok8N7wrjC2TycY2bsVDPjOgAGntfOAeQM6QbSrLeyJ5vXhiwbEkFTO0qp4BtlL197iZogZkB2ngnAXG9p+RvZuegt6TVuQTv9vdgsao9eCcBxhfW3gD4O6GoYfq4aDMRb4KbqiGXypfAcq6o9Du9EXrDRgsMlJmK7/mz0Jx5idhOUGRPWzgV1RvB78QzFUX3KWVkXTySnceUqaQeBgAg9RrrY6BgQJBphdhsYaWIYieDl8Mf3iXkB3GTqaLkPxpFUwIEgyILyfDSwb6mAIPhyMUlve0XThNFJNd5zi9n86gXVhjhDRz4a+YHEO+LE0EJ6UD2IbsRFGN2LCUxBL+7togkLSjljcDcs3YmgAtp9R9B54L7wnGoDjwPHguBK97PTgH4pWw8FoouEsrQqnkRvStp/p3eAuCgNGOaMB4luPynlAeArk50DCZCw8CdiOlEcR4i5Y6v1i+mn7GStbgg6HxkphAkbz5QbE9LeFzHCVDnw15EaSc5ylVUECfwfPW+SK87CDyH42MN7FBkL72AgGlAzQzgNmD+OilIdxCPyU7mGcbAd8LEw6hhB2wSNk7ScYfiwJoOPA8eC4Yvvbwsrhjgr4B6PUkBtFajhLq4J48pBu9dmp485YFUzsbwtRrjYwwcUGxvW1gdHUAH/WhgbSZGJCdQ/khFbETJCOo8WjaO2RNJ10Jfhi69FNv9B+8J5479C+wnhwXDi+pcFdFfCpARHqm5ylVUE8/1Q6bUwgsD6sO0xys4VoVxu6DBUn4odFfkIb0nsK5K1IeCdM/mbMS9EMqggGPlyWfB34mP5KWfpLA+i9MQg4HhwXjm+2t70C/sFINeREqB9yllZ5cfxL+ukCphUjHWCymy3ts9hvx9N5wAbqsj2VT4H0ZryuCeJbkuNl74zJhImnqRfbjghfbD1s7V8u9H68Z+0eLzoOsf/j+BI8bGFfBJHg50aq4UA4+YmztMqfQt7QMxZ22rhsWDeY4m5L+6y8DR1e0xceF/uyuSBIWBGxCVn3fWGFEQgak07TLiReAo//liVfgk8nXmHlg/fCe2pWu0jtB8eF45vqYQsZ43gJfm6EGnLC1W84S6u8yfwr6ZQxjsD7Q7pCvLut1IbEp2DVHBU8KvKGx8ViK2ImVCpNED4ZoTXCsBh4nHDFtsPgN1L4QuvBez0u8qb3xnGI7QfHN83TFtaP6inBRx2YQF5zllYHJvJP8YRR1B8Hd6WPt+5TEOtlBzf3u8PjIh94XOyvNAGfBJwTcGIWjcCWIpohkwB9lCz1w1nPF5PP4Jf403vd2O8Ok7zsFOnH8c3wsoNPR3SX4OeGqyF7Av+Ms7TKjlHdpYdb7Jj3vcFdabrEpyBGfApcbGDDYh4eFXoZMEH4aCLdpOG8gFDRiKp3hDfu5cIdrggel5qVQ4QJt3yg0HZk8PFeGxYL6Y/RST9uxv401FGCnxOuhl3j+FucpdXOKNUJ6Xh3MoEPhnaj6cIei2nDJV80MyHS1RbOfNlXZoIf7dN0Yi4LZk8DGhEiM2OYjoSPMGrBC6kXer7YdgT4333lAtGsFU6U9X4cX5K3HSwLcZDg50xQQ1ao6hhnabUjqucqPF0U9dFwB0j0toPp+BR4CCuOWNaKcBmYMrQz3Ml1M2ACexqoEQNpL6dmUIUwsb8jdJp4Br40gE24Wvh4jwUjukitB8eB48Fx4fhm+9jBf4d0k+Cjto3ll3OWVoXRxOMQHmyxI96VIxxglo8dzPSyk1rRZB0TVib2gAd57vCo0FOYmIt8FUYITwQzw6AQeqASfLEvvRZe80G+O6yY2V0Jn7UeHBeOb66vHXyIBjD4OWFq2B/asy9nibU7UnVVPN5dO9oRkn2FR5y2Ik9biGPzgWRCPxtYm9IDHua7waMCD5pYuRHYw6kZkiEysa/TPk8TL4L3otfCa36R1lOCj/fF++M4xNaD45vnZwcfDGYGjKfp/1/OUis7okcMni6iNob2gBQ/O5jjIzPBQ4AgfxJwTkj/DU+BPcx3Z0Z4wqNCNMKHtSc0hJnCUk7Fvo//VgvenV4rfQmvD1/W93FcOL5Uf3vhCRivhgNhtP+P4yy5toervsHj3R0RPH1xKb76JsQzE8SJGQ/Gru12gwd5aAJTgdwMLyPyFKCzxKMe5LtBzR43acKdbAQ+th4c38IB9vDB4K5wYLwaMkarSjlLr5KIXl12Rqhu5kQT+uLm+9vTFys3YRqbmKfIWtIPmW5waacb3JeboJA7NYWKpVxX9w+5waUdbvRaeF28Pt4H7yfCx0kXxzPfzw7SBtjD4gB7+K/B3SBzjOr63hn+NlxHqKzong6Z41Xf/y64M32R+GLlJsxkJiTIWhJCQ53f5gY39hkzwbhuHnCD81nCNVB4Xby+OOHKky+Hj/pDcJfNG0N6d+Y6Wi0Jso1aHGB3jpqA7chPgDDL245ugOJH+kLk/DQYs3KLBE7U5Z1udAlpDvydHOHJ0f35Ecs2QvicVIgf7k3vR3s+wve3l+AvCrCvXjig8ySuI9fiEK7TosDOMWkD7DNS/exrksYFQtS/fwgjMo/DoLIHMLAUdV8PoKjq7W5Qv88NGnKFOQKFf8av4feM/Zxvzh3wPXAHfA7cgUEbqmDCkvchaWwALBhgX7NogP3Xi/07Ry/vKL+YZ65CzkCnQeX3kgaVPagSoN+nCi5hKjZuwNvKZ/9tKu99gryyb4HX3ptvvPbc0njsvZkYqoFf/SzADyy7nxJccr+aQi/RAkcFFd2jCiy81+oGeGeL0AV57kHdBI/dTDtvXHXfdWupZ2G1LdcRa1DZvejgknvVcuhBxfcU0KkKGiCgoKHVDfA0AN19F9POG+C2g2n7jfP9s+ojuY5SIZrHfHDx/WzdlAdJwO9R4AH5ggbkoe62ugEUugy4HHr/7ah66J9VD66obfXgmlm/xzmzzrL/446BRQ3hgUX36o2lPACBy6D7H7oL/gcFndkW1GrwT2cGCsB1oWcx6Ah8Wz30y6wTtLUOXFBf19X12Xo9jLPECiy4tyiwoOGlqZQPOKSF7ofKvUOFK5b92+NbzYB92+Kwtein3BD0jDrom3Ed+n4tqM+W2lfO6bVLOEuqgMKGT+Qpl0P3NwQ9545imYirld/t/qrVDHg3a4ME3RBwFznwdKYtteCM2izIaWPtSs4SakDe3Y+0wBsUKffXSbmvBP223jLRL7sOirPGtxh+aWYoeGZeMZ1yA9B7ozbVQO+NNeCE+ivqWvv+Hxb9DzWkGk15rn7KfWTAvXGJyJaJ4oolfPcROL0tsEW9PzSzSi/lfY2kvPcmfei9UF9do1J/eQ3IhpoUrj2Wb969AL/cu43NSbmXAei6y8ToHRVwZNvwZsM/nDkcJmSUmm0tFPgmecq1wHt9KUBXb0DwV4H85Srwf7nylKy/Esy1q1oOv/TNvX3SGHRtys1shnYZXiYGZp2HtVm/h39kepkFj/9m9dal4Jf+z7dOuS50Cv4L1BVQrb8CPddfOYOvmWsv5ZNze/7bptxDvhkSoctWLPJl4uDM72Bp5jrI3DoLKjJHwdlMfyr889ats+C3GWshOP2sUehOCujGU64FfhX49QJ01f9cgZ6oz1GXofvnl5O59lLe+2+f89Y7Z2leyvubWSa6mJpAt9QK0E2k3KmZKVdCv0zV47PL0GPdZei+7jI4rrn0AwfQ9v+PhNe+O2O93yblutC3tWyZaDLlCuimU66SpZwCl0HvvvYSleMaQV3XXG7735703HvrUwH4LfA0k/K33gylo2qVy8QWpfyq6ZR/xoCvUwJ3XH0JHFZfBIdPBXX75OLHbc2fc99140STU97EzVDfFiwTpZRLq5aWpdxBBr2bAB26fVINXVdVQ5ePL7T9B7bcd9TfbL2UX2/CZsj0MrEpE6gSOgO+1mjKqRA41ccIvhq6/Lkauqy8UN/W/Ln+O+pfNGkCbfWUX9NP+Rdvl3JHEylXQr8AnVErmVZceNHW/DnXf9UE+tW/MOW0tVzUQjeVcjlwA2pr/pzJZWIzUu7U0mXiW6X8ovmUm1Fb8+dcMq4/brVl4oaWpNzQBHrReGtpRsqNyX7F+bb/3bE+6ddzWn8zdLVpy8T/p5Qb1YoLe9qaP+e8pc6n9+ba+81eJrbSZsjBVMrpUlEGvaXAFem/0GC/qrp9fGraeUOdi9PGmr1Of6151Jop79G0zdBbT6BvBX7l+UeY/HYD31rWspa1rGUta1nLWtayFmdp9X+feARdBkcHLwAAAABJRU5ErkJggg==;" parent="2RodaU5CaoGVy-wO8Fqs-1" vertex="1">
          <mxGeometry x="947.65" y="451.09" width="73.83" height="73.83" as="geometry" />
        </mxCell>
        <mxCell id="_XjjVBNzUtTRRZKFKddY-20" style="edgeStyle=orthogonalEdgeStyle;rounded=0;orthogonalLoop=1;jettySize=auto;html=1;exitX=0.5;exitY=1;exitDx=0;exitDy=0;entryX=0.5;entryY=0;entryDx=0;entryDy=0;endSize=8;startSize=8;" parent="2RodaU5CaoGVy-wO8Fqs-1" source="_XjjVBNzUtTRRZKFKddY-19" target="_XjjVBNzUtTRRZKFKddY-9" edge="1">
          <mxGeometry relative="1" as="geometry" />
        </mxCell>
        <mxCell id="_XjjVBNzUtTRRZKFKddY-21" value="Запрашивает расчет&lt;div&gt;ставки депозита&lt;/div&gt;" style="edgeLabel;html=1;align=center;verticalAlign=middle;resizable=0;points=[];" parent="_XjjVBNzUtTRRZKFKddY-20" vertex="1" connectable="0">
          <mxGeometry x="-0.4957" y="8" relative="1" as="geometry">
            <mxPoint x="-8" y="27" as="offset" />
          </mxGeometry>
        </mxCell>
        <mxCell id="_XjjVBNzUtTRRZKFKddY-19" value="Фронт-офис" style="shape=image;verticalLabelPosition=bottom;labelBackgroundColor=default;verticalAlign=top;aspect=fixed;imageAspect=0;image=data:image/png,iVBORw0KGgoAAAANSUhEUgAAAGAAAABgCAYAAADimHc4AAAACXBIWXMAAAsTAAALEwEAmpwYAAAQAElEQVR4nO1ba3RUVZa+09O9Zjm2IlC3CBBJVeUd8iStNIoyiEKIINi2gyLviPPDpd3ar5lpZzGzWkcRHwwNtgg2khAIAQlJqvKgKqlK5GEgg63TC8kDAiGBEJJUVSCIgO5Z+5xz655761YeJHQlVfWt9a2VqlTdx/fts/c+59wShBBCCCGEEEIIIYQQQgghhBBCCGEYwvrC6FH2LP0S+yrdRkeW7nNHlq7JkSU6HVki2FdxXClCJXKFCJXLKSuWMS4VwYZ8TnfN3/czYmBbNmaiI0uXbc/Sfet4XgQvZlHyBtglA5gJFctVBiwRz/v7vkYE7Ct1v3SsEm/wgldx7M0EfhR4DFjmMcDu73sb9nCs1G2QhPUIv9qbmiZojQJlGvqDv+9v2KLqBd2Umt/od/kU/wVG6XVvo8CHAdZn9dP8fZ/DDtUrxyQ4XhArJBEVBnDiVzPyJvCjwKcBzATrYhFKnhTrSubrk/19z8MG9izdK47nddf4KPZpwL8wciYMxIDSnxMDwLxQd6V4gThHCGbkPy38vf158UNfKWSoR0D5Iio+0rJQBMsT4reW+frHhGCFI0u3zRPpGl2MVw2QhNcyoI8acGCRCKU/Ywag+MgFIpjn6y6bM8fEC8EGxyrdv3uJpu5g8G+p/dTogHwWYe4YJPKfEaH0KZUBC5gBT4hgnqf7sjZd+JEQLLAvF1Ptq8SbmsKrU8cKVhM0TOhtHoDfsz4nQtnPad5HA0rUBqD4yPkiFD8+9ldCsKByhe6wJLido0d4jQkUto/S/zxCZ3FcxSKetJkilP2zCGVPMwOk6GcGWHgD5lMWzdO15z8dfocQ6LAu1U8jUc5zBeXBF8PgzGYTOIsTwFWaCBd2xsPXb5vg0IvjpRksIUY2tpPIA88yPkOLLLIqKwz+7w8maNmWAF2FieAuSwRn0WRoWG/COYC3AfNwBIhQNHfsYiHQUbFc/FAR6Ssoj7wcBs7CeLh8IBGuWJPhii0VeiqmQE/lT+Bq5X3QUZAGpz+Ih+OvGeDwSxPBvioMbEv0hPaVYVDz6iT4el0MXNqbClft95Pv4HfxGHgsPCYeuz0/FqzPjpPzP2dAcaaYJwQ6KpaLx6VVykpGR5YeOgpi4fKBJLhiTYErtjToqUiHnsr7qJiOn8I3VdPgm6oH4JvqBwmvVU9XkLxfhXyAfBa/g9/FY+Cx8Jh4bDzHuY+jWAfE8r80AjJ1jUKgw7ZUdJKczuX4+vUGFvkp0MPEv2q/D646pjLhUXQm9mcPwbXPHvbBh5gZ0zkjppJjEUM9JiRC7W/C5ej3pCDxqhDosC0Vr3sK6zKc1Y6D7rLJcuRXpnNRTyP+WrUk+gz49iDynygPzaSUXh+cQT5DPlv9EBsVD3CjQRoJydCeH09rgJx+oDBTDPx9AusS0YmdisSv3zZwOV8pvhzxMzjBH4HryMOzlDz0CPmfZIhiRHhMkNIRrQlHXproiX40oGiueFEIdFiX6M5I3YxtqQgdBQmegouFUy2+J+I9oj8K1488RniDUXpN/nd4FjXCMyJUJpCaQAtz4x+jqPgk/+uhMENfJwQ6rEvEasmAIy+PJ5FI8j52O3aW8zHtSOIfmskingp/48hsuPH5HMYMRvb6yGzZCM9ooCbQdDSNnIN0R7Y0cJckQclCPYt+PY4AqxDoOLBYt5308c+J8Nc3DYrU8w2JfinnY+TL4svCZ8DNmrlwsyZTxbmyGWiEZMLBmbQuYE3AYi7VA5aKjrwcTqKfGDBH3CoEOqyLda9Jk6jW7DhWeKXol1LPwySFqMX3CH/0cfju6Dz47hjj0XnkPdkItQmsJkipiI0CPHfdukgW/XrYP0f/mhDosD2rX0gMeE4EtyVJlftVqefwLJrnJfFReCL6fPju2BMq4nuSEZIJj7GawKWiqgcVtaBt12RqQIYeimaLTwmBjopFYiQuHVStDlOmn6pp2tH/+Wy4WZMBN49myuLXPgHf1y5QEN+TTcCRgOnIexTQOcI0OQ1ZU6HkyXFYgGH/nLGxQqBjzRrhB+XP6C7X/i6cGqCVfryiP5OlHE78/12oJG8CpqSaTK9RoJ2GUuGz1eFQOFu8ihtEQjCgfJFYc2KtSc7/DskAPv1IuV+KfrX4T8L3x39GiX+rTMDvkKLMaoEnDZFijC2pXAe++L0BCufojwmBjub88DsaciPWVv1Cd/nUxii5/fTK/3LxlXO/ZIAsPhx/itBjgsIArAW8AY941QGpHa1/LxpsWfrLeG14jUKgomm3aUtjbgQc/g8RWj6JvTUDuOiHL54i5EeB0oC5/TKgeUssVP9WD3htTXmmj4RARVOe6Sre5NG39GQtpqdfBmSoRsACbgRQ9m8E8ClIacDFvAT4/HWPAT1CoOLMblMT3uQXm/TgLknsowbMUtUALMKqGqAgqwGkJZ2nqgGzeq0BbksiHN9IDcBrFAIVTbtNe/Emv9yip2v/NuyC0jUmYdSA615zgP51QfxcgC5NzGIzYnUXRGfDeC14TWwE7BECFU15xn/zMqBCWoaQ1oC0ZsEZXq3od4o5gFYLKqcf5TwAlyO4eYANDUiUDcg3/asQqDidZ3hYNoBtwKhnwqo0pBwFnAmK2TB7TZYkMr2jXyP/e1ZF2QaNZABeoxCoABD+rjF30jt/+UjffbkcN2GSe10LkouxZEIGtxbE1oMIH+fWgqQFOboq+m0fa0Fkr7h8MuA1NeZGrMNrFIIB3WUJLA2xUUC2IPnVUHUqeky1GsqviM5VrYZyS9Ie8bnot0t7AnSPGK9FCDZ0l8WB9yi4X7EfIO+Esc0Yz34Avycg7wXI+wHypgzdouT3A+73in68FiHY4C6J/b67nI0CVgvIUxCsJfU2QdobUO6KqXfD5I0YtfhS66nM/XgNeC1CsMFdEt0ljQJFR6Q2wZOONPaFD6Hg3vvBdMar3pifygqv3HpK0e+yRHUIwQaXJbKquzQGusv4h7HSVCbQR1L4x1EUT0V4kQnv2QdmaUchvpR6Esm53aUx4LZEBd9vxpxmw6/dJdHQXRpLiqCmCdgZ4fzAMxrw2aCHfDwbhKJLzwWxB7RIv68hPqaesgRybndJFDiLjK8KwQb3vgljXZbIHo8JpB5oPJZIHlPhjOCejiObK5LgkuiS8OSBrPs1H0/Ec1Hxo8FlNl12mSeNFoIRLrNhjdsSSYToLo3TMEF6RJEZgdGMrSrhNBV/ylpMXvh0cgxv8ePIOfHcLrPx90KwAkqi/sFpNhyVTcB0FC8XZvK0nNII6WFdMm8gpiDvkx/G9RI+hSu48Z7Ix3M6zYYavAYhmNFVZJrkNBsuuRQmYHdERwM1go4IUh9IjZiiTczxNj7ik+gxMOrL4uS0g+IXGzudpREGf9//sICryDDbWWy45rKYSFF0l8RwoyHBMyI8ZuDI0KQkOo14KrwU9THk2HgOPJezyDTL3/c9rOA0R8x0mQ3dLrORpAeSJrBNZSNCYUY5jgwV8T1edCnisc2U8z24io1X0HB/3++wRLfF9KDLbHQSocwmZkQUS028GdQQJdn7+BlJdPwuEd5ExTcbnW5z5AP+vs9hDWdphMFZbDjIBKO0KM2QiUJLYkcrRbd4RCfEgusqjIzy9/2NCIB9xg/P5XMGKGii4mpRjnQFW/YYAWrTg+dnqEOBE9uN0LDDCBf2+TKib14sMEJDrhHwWP6+nxGHE9upcMjGXCO07cM00rfoTiZ84075+yEDBmnACcaTOUY4s9sIbQVG6CyURe8sogadyTPCyWzv74UM6CfSK1yRUw44V6fZnDu0RBwM4/a358QVtD8fvbfNdCsBEbBIO9ARn2Z1/meq1flVmtUJqQeQXTDkBhS0Q9y+dohFfnrxy5i9bWti8y8F/tPQWkivhR+l2TqfSbM6HVT0LsKUcsayLqjNSR4y8Y9lJ6PohDF7KaP3tEF0/oXvo3e32SPzLyyaYYcfCsEgfKq1a1lKeVc9Eb1cFhyZXNpJmFTSCQU7nxwyAz7NWQgxeyTRKaN2Iy9AZB7jzvNNpl1tv4gqqQ/Mxbk0a2dGSnlnPS96clmnQnRCSwckWjrglU83D5kBL+36AKI0RDftYtx5Hoy5jDvOnzTktAbOUkW6vVuXUta1Rx3lyR7BO4ngiWbKycXIS5BSdB7Kd8watPjW7BkQn3eWis4Jzotu2IFsBUNOK0Qgs1shYnvr7gnbW8YKIxmppR2PJpV2tvqK8kQUnBM9oegSJBRSxu+/BBn7DkFt9q3XgmPZSfDozmo5ytWi5zDRUfDsVpi0vYXykxa4F/nnlpaJn5ybKYxEJFk6VydZOm70FuWTi2TR44no7YSkY2Fdy7w9dqjOmTpg8auzp0JGro1PLd5RriX6thYI33YOwv9MOXFr880JHze/KIwkJJZ0rOWjnBc9QUv0gnZ1m6joWKbk18P7ua/AV9uj+xQeP/Nuzi8hecdJzdSiJfi9vOAfM25thgnILZRhm5vfEEYCJhdf+i9Z8A5FlCf4iPLYfRe120TWtUgFdGreV/Bq7nrIzl4MldnT4fj2BMKK7OnkvVdy3oef7PjLwKNcQ/TxyI/OwvjNZyEM+SHyzPD+HXFCUcdKn1G+v/coj9EQXNEmDqSAcqJrRXm4jygf/5G36OOQfzpDqP/gDIibzi4ThiPiijsT4/df6hlslEep28SdXm3ireVyn6KfJZSjXBZ83AdUdP0mFL4JxI1NoNt4+qq44XSKMKywBn4Qt/9ijS/R5SjvYzK0axBR/snQRbladCL8H5GnYeyG0zBmw+lavGdhuCC24OKKW43ySH4yJInOCd5rm9jPAiqJHqYQ3XeUy4I3gW4DFX3s/5yGMcj1yFNwz/pTS4ThgphPL/41xmud5XZFeYt3atnaTEXvJcrDBhjlStFPEY5+/xSMfu8U3PPeKRj1TuMJAcD/P+aI3tv+8EAKqNGX6Nm3McoVovce5WO5KCeCc6Lf824j4ah3KH/8zqnp/tZfiMpve5sK3gZRfUT54Apos7JNHFSUN/Ue5e8zwd9TCj5qXSPcva4B7n6b8q61DW/6W3/BtOv8kX5HeT8nQ+GDLqBNXNcyuCi/mxP9Lio63LW2Hn78Vj3c+WbdIX/rL5hyWy/crjZxvOZkqPc2sT8FVCk6E/xdn1FOiIITvonC18Od/10Pd75R1+pv/QVDbuv1v/VkSO/Vm6sK6ACjfFQvUa4UvQ7+EfkG4+t11/2tvxBxuwron25jlJPU0iCL3luU84Jr0N/6C722iQOI8rDBtom3FOUNfUd5H/S3/sK92851D1mbuGkwUa5VQBt8p5YBRLkv3vH6SZe/9RcmfnyuYOgnQ039axP/RlHuk6/X7fa3/sKErS2x47c0dw24TRyiydDdvUU5aRU50QcruCL66zrueKs+XBgOmLCp5d6wzWfzwz486x7KKB/dv8nQLRfQWxL+jZNujPxhI34IIYQQQgghhBBCCCGEIIw0/D/3yz4YG8CD8gAAAABJRU5ErkJggg==;" parent="2RodaU5CaoGVy-wO8Fqs-1" vertex="1">
          <mxGeometry x="73.92" y="140" width="76" height="76" as="geometry" />
        </mxCell>
        <mxCell id="_XjjVBNzUtTRRZKFKddY-28" value="&lt;font style=&quot;font-size: 14px;&quot;&gt;Сайт&lt;/font&gt;" style="html=1;fillColor=#dae8fc;strokeColor=#6c8ebf;shadow=0;fontSize=12;align=center;fontStyle=0;whiteSpace=wrap;rounded=1;container=0;verticalAlign=middle;fontFamily=Helvetica;strokeWidth=3;arcSize=11;" parent="2RodaU5CaoGVy-wO8Fqs-1" vertex="1">
          <mxGeometry x="847.65" y="148" width="140" height="60" as="geometry" />
        </mxCell>
        <mxCell id="EB5GRdxhOc9jYG1-reXr-0" style="edgeStyle=orthogonalEdgeStyle;rounded=0;orthogonalLoop=1;jettySize=auto;html=1;exitX=1;exitY=0.5;exitDx=0;exitDy=0;entryX=0.5;entryY=1;entryDx=0;entryDy=0;endSize=8;startSize=8;" parent="2RodaU5CaoGVy-wO8Fqs-1" source="_XjjVBNzUtTRRZKFKddY-31" target="_XjjVBNzUtTRRZKFKddY-2" edge="1">
          <mxGeometry relative="1" as="geometry">
            <Array as="points">
              <mxPoint x="1060" y="260" />
              <mxPoint x="1060" y="800" />
              <mxPoint x="415" y="800" />
            </Array>
          </mxGeometry>
        </mxCell>
        <mxCell id="EB5GRdxhOc9jYG1-reXr-1" value="Получает / отправляет&lt;div&gt;данные транзакций&lt;/div&gt;" style="edgeLabel;html=1;align=center;verticalAlign=middle;resizable=0;points=[];" parent="EB5GRdxhOc9jYG1-reXr-0" vertex="1" connectable="0">
          <mxGeometry x="-0.892" relative="1" as="geometry">
            <mxPoint y="48" as="offset" />
          </mxGeometry>
        </mxCell>
        <mxCell id="_XjjVBNzUtTRRZKFKddY-31" value="&lt;font style=&quot;font-size: 14px;&quot;&gt;Интернет-банк&lt;/font&gt;" style="html=1;fillColor=#dae8fc;strokeColor=#6c8ebf;shadow=0;fontSize=12;align=center;fontStyle=0;whiteSpace=wrap;rounded=1;container=0;verticalAlign=middle;fontFamily=Helvetica;strokeWidth=3;arcSize=11;" parent="2RodaU5CaoGVy-wO8Fqs-1" vertex="1">
          <mxGeometry x="847.65" y="230" width="140" height="60" as="geometry" />
        </mxCell>
        <mxCell id="EB5GRdxhOc9jYG1-reXr-2" value="&lt;font style=&quot;font-size: 14px;&quot;&gt;Подсистема депозитов&lt;/font&gt;" style="html=1;fillColor=#1ba1e2;strokeColor=#006EAF;shadow=0;fontSize=12;fontColor=#ffffff;align=center;fontStyle=0;whiteSpace=wrap;rounded=1;container=0;verticalAlign=middle;fontFamily=Helvetica;strokeWidth=3;arcSize=11;opacity=40;" parent="2RodaU5CaoGVy-wO8Fqs-1" vertex="1">
          <mxGeometry x="345.22999999999996" y="563.91" width="140" height="60" as="geometry" />
        </mxCell>
        <mxCell id="EB5GRdxhOc9jYG1-reXr-3" value="&lt;font style=&quot;font-size: 14px;&quot;&gt;Подсистема кредитов&lt;/font&gt;" style="html=1;fillColor=#1ba1e2;strokeColor=#006EAF;shadow=0;fontSize=12;fontColor=#ffffff;align=center;fontStyle=0;whiteSpace=wrap;rounded=1;container=0;verticalAlign=middle;fontFamily=Helvetica;strokeWidth=3;arcSize=11;opacity=40;" parent="2RodaU5CaoGVy-wO8Fqs-1" vertex="1">
          <mxGeometry x="345.22999999999996" y="643.91" width="140" height="60" as="geometry" />
        </mxCell>
        <mxCell id="EB5GRdxhOc9jYG1-reXr-5" style="edgeStyle=orthogonalEdgeStyle;rounded=0;orthogonalLoop=1;jettySize=auto;html=1;exitX=0;exitY=0.5;exitDx=0;exitDy=0;entryX=1;entryY=0.5;entryDx=0;entryDy=0;endSize=8;startSize=8;" parent="2RodaU5CaoGVy-wO8Fqs-1" source="EB5GRdxhOc9jYG1-reXr-4" target="_XjjVBNzUtTRRZKFKddY-28" edge="1">
          <mxGeometry relative="1" as="geometry" />
        </mxCell>
        <mxCell id="EB5GRdxhOc9jYG1-reXr-6" style="edgeStyle=orthogonalEdgeStyle;rounded=0;orthogonalLoop=1;jettySize=auto;html=1;exitX=0;exitY=0.5;exitDx=0;exitDy=0;entryX=1;entryY=0.5;entryDx=0;entryDy=0;" parent="2RodaU5CaoGVy-wO8Fqs-1" source="EB5GRdxhOc9jYG1-reXr-4" target="_XjjVBNzUtTRRZKFKddY-31" edge="1">
          <mxGeometry relative="1" as="geometry">
            <Array as="points">
              <mxPoint x="1060" y="178" />
              <mxPoint x="1060" y="260" />
            </Array>
          </mxGeometry>
        </mxCell>
        <mxCell id="EB5GRdxhOc9jYG1-reXr-7" style="edgeStyle=orthogonalEdgeStyle;rounded=0;orthogonalLoop=1;jettySize=auto;html=1;exitX=0.5;exitY=1;exitDx=0;exitDy=0;entryX=0.5;entryY=1;entryDx=0;entryDy=0;" parent="2RodaU5CaoGVy-wO8Fqs-1" source="EB5GRdxhOc9jYG1-reXr-4" target="_XjjVBNzUtTRRZKFKddY-2" edge="1">
          <mxGeometry relative="1" as="geometry">
            <Array as="points">
              <mxPoint x="1127" y="760" />
              <mxPoint x="415" y="760" />
            </Array>
          </mxGeometry>
        </mxCell>
        <mxCell id="EB5GRdxhOc9jYG1-reXr-8" value="Обслуживает и&lt;div&gt;администрирует&lt;div&gt;системы&lt;/div&gt;&lt;/div&gt;" style="edgeLabel;html=1;align=center;verticalAlign=middle;resizable=0;points=[];" parent="EB5GRdxhOc9jYG1-reXr-7" vertex="1" connectable="0">
          <mxGeometry x="-0.849" relative="1" as="geometry">
            <mxPoint y="81" as="offset" />
          </mxGeometry>
        </mxCell>
        <mxCell id="EB5GRdxhOc9jYG1-reXr-4" value="IT-отдел" style="shape=image;verticalLabelPosition=bottom;labelBackgroundColor=default;verticalAlign=top;aspect=fixed;imageAspect=0;image=data:image/png,iVBORw0KGgoAAAANSUhEUgAAAGAAAABgCAYAAADimHc4AAAACXBIWXMAAAsTAAALEwEAmpwYAAATFUlEQVR4nO2cB1RVV7rHz8waKRZQ79lXRBHpRYqKLTZE6RbABiqiiPpmxZlx5s1bWXkvebqyRicmluSZMRkLQcSOCkqvF41lLDGzJk6eYgXBijWixva99e2zz7nn3ArCPLjkfmv911KQc/b9/f/n2+Ve5DhrWcta1rKWtaxlLWtZy1rWspa1rNXOqvC3nraVqXxoZSq/rDKVL6qcz/+9Yh65XjGPf1qZwj8vn8vfqZhLqsuTSUF5Mv9x6Vwy9egCVbe2HrfFV9lcZ1VVGr9Ms4C/rVlAgCqVQCVqPoHKeYIqUpjmEihHJRMon8M/L51DCsuT1fHLl3O/bOvXYnFVtYiPqVrI36pKI4AyZkCFMQOSCZTNEVQ6i5wvnqWaAxz3i7Z+XRZRhxeTeZo08rpqoQBfMiCVGTC/GQbMFlQ6i6qiLJH3buvX165Ls1A9omoheaUHvwkGlCtakEEDoDSRf1KSRKa39etst1WVxp+QwzfafowZkGzGgCQCxUnkTclM8lFbv9Z2UZp5xKlqEb9Us5Av1aTxt03Bb3b7MWJACSqRQPEM/s/cz7WOpDoRTRpJr0ojr+TATcJvqQFJzIBEppkEimbyH3I/t9IsUA2pTCXXzYJ/S/im2o++AeRN0TR1HPdzqaoF/KDKBeSBAvICIzICvzXaj2hAMZowgzwom6p25zp6Fac59NSkkhoRrMYE+OO/6aUPv5XTj/CLZwgqms4f6/D7hIp5ZDcC1TRB369w1gOvB1936Wkm/aYNIFA4lU/jOmrRsxw5UFSqAbHvXdvkCocXq03CN5f+prQfasB0ZsA0vqEs3lnFdcSqSOFPUJDzm6aazf3h/Op+TYffgvRTA6YJKkzogEvTimQykgJkMBWar9/jUXUZHvCw0A+OvttLCb658JuYftGAggTyKH+iYw+uI1V5CtkhwRPTbMiMedrv3dzuDT+WBsL1DB9t+kXwZuA3O/2iAVNxHiBQGM8v4zpKHVrcu3PFXP6JXopNaR6Bh3kB8KR8IDRWDIYfVnm0Dnwjk6+YfmpAAn0K6jWh3K+4jlDlKWS6CK5ClBkDji3pzeCHQGPlUKq/L3dTgG8y/OamPwGfAAKFcXws1xGqLJnPosBkCa4wo3Mr3Sj8p5qh8LRqODw7/A481YyE71d4Klc7xuAb6fslxuDL0i8akB/PZ3MdocqTSa1ucuVmlBvQ3X1BDP4IeHZ4JDw7MgqeHxkDz78ZC7VfD4SqNCez8HX7vqmVj276C9CAOP557hQLf1uzKLFXfwSFidUzwYjOvN8PnlZq4T8/MhqefzMGfjoaCj8dHQc/HQuDxopQOLfCFyrmqs3DN9d6cOmpk340oCCOQN4UdQJnyVU6m8yVWgWTKTMqU9TQkBvM2o4If6wA/1gYvDg2Hl4cnwAvjofDixMR0FgZBpfWB8GRX/eRwDcXvqH0I3xU/mSymbPkKp1N1kptYo55VX/mBU81w2jPf6YLn4F/eSISXv4tiimaKQoe5I2Fi58Hwonfu0JpktowfEOrHt30M/gFUwjkTyF1Fn0+VDqLL5H3aYV04J9+z4WudoTWM0rbdkT4JyLg5d8QfjS8OhkDr07G6iiGmREJjZowqM8cAv/4yBs0C5zNr3oMpR8NmEzg4GTiyVlqlcwi9fL+bMyMI7/uDY8KB0rp17aecfDimAg/Cl6dRPix8OrURHh9ahK8Pj2ZaRL9mmCE8ETgz6BxPx0Ng4YDw+Dcn7yhfK6T0VVPgX76qQEFk1SzOUsszTzH7rQnzzKtihQ13M0OhMbKIaz3y9M/XtZ2BPha8FPg9Rkm/DN+7RQaESs8CSci6c/iNfBaeM3GypFQ/ZkvlM3upUi/MfhUk8jnnCVWeZI6SD4xGjKjJIlAbboPNFYMoiufZ9h+cMkppv+4PP0xWvhnpsCbM3EKCUYwE06iCVHwUnoKxtFr4rWfVb0Dj4sGw7f/6aqffn34kDeRP85ZYhUl8RPpRKhrgkzLRnaDJ2XB9LhBr/2w3i+lH9uOHP638fDm2wSmeIUJQjuSPwVh8PybUHptYVM3jN7zwhoPyNdNvxz+JAKHJpJHnCVWyUzVvymWg8wM0ZDNMT1hTJ9OzIAQZoCw9NROvuF0UqWTrmSADP7ZqYLkJmA7ok8BTspRyjZEDRjJDAih9/6PwV0Nph/h500UdHCyuhdnaVUyk6ygO1BdExIJ5E3nYZKHHYxyNmUA6/+K9iNL/9mpAGenUUkmmDVgDDNguGBA+UAY28cG1ox21G89ogGxBA5Fk9GcpVXRTLIJ1+Alukok8N7wrjC2TycY2bsVDPjOgAGntfOAeQM6QbSrLeyJ5vXhiwbEkFTO0qp4BtlL197iZogZkB2ngnAXG9p+RvZuegt6TVuQTv9vdgsao9eCcBxhfW3gD4O6GoYfq4aDMRb4KbqiGXypfAcq6o9Du9EXrDRgsMlJmK7/mz0Jx5idhOUGRPWzgV1RvB78QzFUX3KWVkXTySnceUqaQeBgAg9RrrY6BgQJBphdhsYaWIYieDl8Mf3iXkB3GTqaLkPxpFUwIEgyILyfDSwb6mAIPhyMUlve0XThNFJNd5zi9n86gXVhjhDRz4a+YHEO+LE0EJ6UD2IbsRFGN2LCUxBL+7togkLSjljcDcs3YmgAtp9R9B54L7wnGoDjwPHguBK97PTgH4pWw8FoouEsrQqnkRvStp/p3eAuCgNGOaMB4luPynlAeArk50DCZCw8CdiOlEcR4i5Y6v1i+mn7GStbgg6HxkphAkbz5QbE9LeFzHCVDnw15EaSc5ylVUECfwfPW+SK87CDyH42MN7FBkL72AgGlAzQzgNmD+OilIdxCPyU7mGcbAd8LEw6hhB2wSNk7ScYfiwJoOPA8eC4Yvvbwsrhjgr4B6PUkBtFajhLq4J48pBu9dmp485YFUzsbwtRrjYwwcUGxvW1gdHUAH/WhgbSZGJCdQ/khFbETJCOo8WjaO2RNJ10Jfhi69FNv9B+8J5479C+wnhwXDi+pcFdFfCpARHqm5ylVUE8/1Q6bUwgsD6sO0xys4VoVxu6DBUn4odFfkIb0nsK5K1IeCdM/mbMS9EMqggGPlyWfB34mP5KWfpLA+i9MQg4HhwXjm+2t70C/sFINeREqB9yllZ5cfxL+ukCphUjHWCymy3ts9hvx9N5wAbqsj2VT4H0ZryuCeJbkuNl74zJhImnqRfbjghfbD1s7V8u9H68Z+0eLzoOsf/j+BI8bGFfBJHg50aq4UA4+YmztMqfQt7QMxZ22rhsWDeY4m5L+6y8DR1e0xceF/uyuSBIWBGxCVn3fWGFEQgak07TLiReAo//liVfgk8nXmHlg/fCe2pWu0jtB8eF45vqYQsZ43gJfm6EGnLC1W84S6u8yfwr6ZQxjsD7Q7pCvLut1IbEp2DVHBU8KvKGx8ViK2ImVCpNED4ZoTXCsBh4nHDFtsPgN1L4QuvBez0u8qb3xnGI7QfHN83TFtaP6inBRx2YQF5zllYHJvJP8YRR1B8Hd6WPt+5TEOtlBzf3u8PjIh94XOyvNAGfBJwTcGIWjcCWIpohkwB9lCz1w1nPF5PP4Jf403vd2O8Ok7zsFOnH8c3wsoNPR3SX4OeGqyF7Av+Ms7TKjlHdpYdb7Jj3vcFdabrEpyBGfApcbGDDYh4eFXoZMEH4aCLdpOG8gFDRiKp3hDfu5cIdrggel5qVQ4QJt3yg0HZk8PFeGxYL6Y/RST9uxv401FGCnxOuhl3j+FucpdXOKNUJ6Xh3MoEPhnaj6cIei2nDJV80MyHS1RbOfNlXZoIf7dN0Yi4LZk8DGhEiM2OYjoSPMGrBC6kXer7YdgT4333lAtGsFU6U9X4cX5K3HSwLcZDg50xQQ1ao6hhnabUjqucqPF0U9dFwB0j0toPp+BR4CCuOWNaKcBmYMrQz3Ml1M2ACexqoEQNpL6dmUIUwsb8jdJp4Br40gE24Wvh4jwUjukitB8eB48Fx4fhm+9jBf4d0k+Cjto3ll3OWVoXRxOMQHmyxI96VIxxglo8dzPSyk1rRZB0TVib2gAd57vCo0FOYmIt8FUYITwQzw6AQeqASfLEvvRZe80G+O6yY2V0Jn7UeHBeOb66vHXyIBjD4OWFq2B/asy9nibU7UnVVPN5dO9oRkn2FR5y2Ik9biGPzgWRCPxtYm9IDHua7waMCD5pYuRHYw6kZkiEysa/TPk8TL4L3otfCa36R1lOCj/fF++M4xNaD45vnZwcfDGYGjKfp/1/OUis7okcMni6iNob2gBQ/O5jjIzPBQ4AgfxJwTkj/DU+BPcx3Z0Z4wqNCNMKHtSc0hJnCUk7Fvo//VgvenV4rfQmvD1/W93FcOL5Uf3vhCRivhgNhtP+P4yy5toervsHj3R0RPH1xKb76JsQzE8SJGQ/Gru12gwd5aAJTgdwMLyPyFKCzxKMe5LtBzR43acKdbAQ+th4c38IB9vDB4K5wYLwaMkarSjlLr5KIXl12Rqhu5kQT+uLm+9vTFys3YRqbmKfIWtIPmW5waacb3JeboJA7NYWKpVxX9w+5waUdbvRaeF28Pt4H7yfCx0kXxzPfzw7SBtjD4gB7+K/B3SBzjOr63hn+NlxHqKzong6Z41Xf/y64M32R+GLlJsxkJiTIWhJCQ53f5gY39hkzwbhuHnCD81nCNVB4Xby+OOHKky+Hj/pDcJfNG0N6d+Y6Wi0Jso1aHGB3jpqA7chPgDDL245ugOJH+kLk/DQYs3KLBE7U5Z1udAlpDvydHOHJ0f35Ecs2QvicVIgf7k3vR3s+wve3l+AvCrCvXjig8ySuI9fiEK7TosDOMWkD7DNS/exrksYFQtS/fwgjMo/DoLIHMLAUdV8PoKjq7W5Qv88NGnKFOQKFf8av4feM/Zxvzh3wPXAHfA7cgUEbqmDCkvchaWwALBhgX7NogP3Xi/07Ry/vKL+YZ65CzkCnQeX3kgaVPagSoN+nCi5hKjZuwNvKZ/9tKu99gryyb4HX3ptvvPbc0njsvZkYqoFf/SzADyy7nxJccr+aQi/RAkcFFd2jCiy81+oGeGeL0AV57kHdBI/dTDtvXHXfdWupZ2G1LdcRa1DZvejgknvVcuhBxfcU0KkKGiCgoKHVDfA0AN19F9POG+C2g2n7jfP9s+ojuY5SIZrHfHDx/WzdlAdJwO9R4AH5ggbkoe62ugEUugy4HHr/7ah66J9VD66obfXgmlm/xzmzzrL/446BRQ3hgUX36o2lPACBy6D7H7oL/gcFndkW1GrwT2cGCsB1oWcx6Ah8Wz30y6wTtLUOXFBf19X12Xo9jLPECiy4tyiwoOGlqZQPOKSF7ofKvUOFK5b92+NbzYB92+Kwtein3BD0jDrom3Ed+n4tqM+W2lfO6bVLOEuqgMKGT+Qpl0P3NwQ9545imYirld/t/qrVDHg3a4ME3RBwFznwdKYtteCM2izIaWPtSs4SakDe3Y+0wBsUKffXSbmvBP223jLRL7sOirPGtxh+aWYoeGZeMZ1yA9B7ozbVQO+NNeCE+ivqWvv+Hxb9DzWkGk15rn7KfWTAvXGJyJaJ4oolfPcROL0tsEW9PzSzSi/lfY2kvPcmfei9UF9do1J/eQ3IhpoUrj2Wb969AL/cu43NSbmXAei6y8ToHRVwZNvwZsM/nDkcJmSUmm0tFPgmecq1wHt9KUBXb0DwV4H85Srwf7nylKy/Esy1q1oOv/TNvX3SGHRtys1shnYZXiYGZp2HtVm/h39kepkFj/9m9dal4Jf+z7dOuS50Cv4L1BVQrb8CPddfOYOvmWsv5ZNze/7bptxDvhkSoctWLPJl4uDM72Bp5jrI3DoLKjJHwdlMfyr889ats+C3GWshOP2sUehOCujGU64FfhX49QJ01f9cgZ6oz1GXofvnl5O59lLe+2+f89Y7Z2leyvubWSa6mJpAt9QK0E2k3KmZKVdCv0zV47PL0GPdZei+7jI4rrn0AwfQ9v+PhNe+O2O93yblutC3tWyZaDLlCuimU66SpZwCl0HvvvYSleMaQV3XXG7735703HvrUwH4LfA0k/K33gylo2qVy8QWpfyq6ZR/xoCvUwJ3XH0JHFZfBIdPBXX75OLHbc2fc99140STU97EzVDfFiwTpZRLq5aWpdxBBr2bAB26fVINXVdVQ5ePL7T9B7bcd9TfbL2UX2/CZsj0MrEpE6gSOgO+1mjKqRA41ccIvhq6/Lkauqy8UN/W/Ln+O+pfNGkCbfWUX9NP+Rdvl3JHEylXQr8AnVErmVZceNHW/DnXf9UE+tW/MOW0tVzUQjeVcjlwA2pr/pzJZWIzUu7U0mXiW6X8ovmUm1Fb8+dcMq4/brVl4oaWpNzQBHrReGtpRsqNyX7F+bb/3bE+6ddzWn8zdLVpy8T/p5Qb1YoLe9qaP+e8pc6n9+ba+81eJrbSZsjBVMrpUlEGvaXAFem/0GC/qrp9fGraeUOdi9PGmr1Of6151Jop79G0zdBbT6BvBX7l+UeY/HYD31rWspa1rGUta1nLWtayFmdp9X+feARdBkcHLwAAAABJRU5ErkJggg==;" parent="2RodaU5CaoGVy-wO8Fqs-1" vertex="1">
          <mxGeometry x="1090" y="141.07999999999996" width="73.83" height="73.83" as="geometry" />
        </mxCell>
      </root>
    </mxGraphModel>
  </diagram>
</mxfile>
